<?xml version="1.0" encoding="utf-8"?>
<!-- Generator: Adobe Illustrator 27.0.0, SVG Export Plug-In . SVG Version: 6.00 Build 0)  -->
<svg version="1.1" id="Layer_1" xmlns="http://www.w3.org/2000/svg" xmlns:xlink="http://www.w3.org/1999/xlink" x="0px" y="0px"
	 viewBox="0 0 198.4 34" style="enable-background:new 0 0 198.4 34;" xml:space="preserve">
<style type="text/css">
	.st0{clip-path:url(#SVGID_00000021800098913448664510000011031715373623542439_);}
	.st1{fill-rule:evenodd;clip-rule:evenodd;fill:#B82344;}
	.st2{fill-rule:evenodd;clip-rule:evenodd;fill:#206DA8;}
	.st3{fill-rule:evenodd;clip-rule:evenodd;fill:#187358;}
	.st4{clip-path:url(#SVGID_00000019636966535006395550000004336682239567714729_);}
	.st5{fill-rule:evenodd;clip-rule:evenodd;fill:#253760;}
</style>
<g>
	<g>
		<defs>
			<rect id="SVGID_1_" y="0" width="243" height="34"/>
		</defs>
		<clipPath id="SVGID_00000094607429723942255760000017559315468952915085_">
			<use xlink:href="#SVGID_1_"  style="overflow:visible;"/>
		</clipPath>
		<g style="clip-path:url(#SVGID_00000094607429723942255760000017559315468952915085_);">
			<path class="st1" d="M94,33h9.2v0.7H77.1V33h7.4V15.6h-0.2l-15,18.1h-2.5L52,15.6h-0.1V33h7.2v0.7h-17V33h7.4V15.1h-7.4v-0.7
				h19.2l10.4,13.2l10.8-13.2h20.7v0.7H94V33z"/>
			<path class="st2" d="M147,33.7V33h5.9l17.5-18.6h2.5L189.6,33h5.8v0.7h-23.2V33h7.6l-4.5-5h-15.8l-4.5,5h7.4v0.7H147z
				 M160.5,27.3h14.3l-6.9-7.9L160.5,27.3z"/>
			<path class="st3" d="M122.4,15.1v8.3c7.4,0,10.4-0.4,10.8-3.5h2.2V28h-2.2c-0.7-3.2-2.5-3.9-10.8-3.8V33h9.3
				c10,0,12.2-2.2,13.8-5.5h2.2l-0.7,6.3h-43.8V33h7.6V15.1h-7.7v-0.7h42.6l0.5,5.2H144c-1.6-2.8-4.5-3.8-8.5-4.2
				c-2.2-0.2-4.5-0.3-6.7-0.2L122.4,15.1L122.4,15.1z"/>
			<path class="st3" d="M29,33c-1,0-1.9-0.1-2.8-0.3c-0.8-0.2-1.6-0.5-2.3-0.9l-0.3-0.2c-0.1,0-0.1-0.1-0.2-0.1
				c-0.2-0.1-0.4-0.3-0.6-0.6c-0.2-0.2-0.3-0.5-0.3-0.7c0-0.3,0-0.7,0.1-1s0.3-0.6,0.5-0.9c0.1-0.2,0.3-0.3,0.5-0.5s0.5-0.1,0.7-0.2
				s0.2-0.4,0.4-0.4s0.1,0.4-0.1,0.6V28c0.1,0,0.3,0,0.4,0c-0.1,0.2-0.3,0.2-0.3,0.3c-0.1,0.1,0.3,0.1,0.3,0.1
				c-0.2,0.2-0.6,0.1-0.8,0.2V29c0.6-0.1,1.4-0.6,2-0.2c-0.1,0-0.2,0.1-0.3,0.1c0.3,0.2,0.7,0,1,0.1c0.1,0,0.5,0,0.9,0
				c-0.1-0.1-0.3-0.1-0.3-0.2c0.5,0,1.1,0.1,1.6,0.3c-0.1-0.1-0.2-0.2-0.3-0.3c-0.1-0.1-0.3-0.1-0.4-0.1c-0.2,0-0.4-0.2-0.5-0.4
				c0-0.1,0-0.1,0.1-0.1c0.2,0,0.4,0,0.5,0.1c0.2,0.1,0.3,0.1,0.4,0s0.4,0.1,0.7,0c-0.3-0.3-0.7,0-1-0.4c0.3-0.1,0.5,0,0.8-0.2
				s0.5-0.1,0.7-0.1c0.3,0,0.7,0,1,0.1c0.1,0,0.2,0.1,0.3,0.1c0.3,0,0.5,0.3,0.8,0.1c0-0.1-0.1-0.1-0.2-0.2c-0.2,0-0.5,0-0.6-0.2
				c0-0.1,0-0.1,0.1-0.1c0.3,0,0.6,0.4,0.9,0.2c-0.5-0.4-1.1-0.1-1.6-0.4c-0.3-0.2-0.8-0.3-1-0.6c-0.1,0.1-0.2,0.1-0.3,0.1
				c-0.1,0-0.1-0.2-0.1-0.2c-0.3,0-0.7,0.1-0.7-0.2c0-0.3,0.4-0.2,0.6-0.2c0.7-0.1,1.3,0.3,2,0.4c0.1,0,0.1,0.1,0.1,0.2
				s-0.1,0.1-0.2,0.1c0.3,0.1,0.7,0.1,1,0.1c0.5,0,1,0.1,1.4,0.2c0.3,0.1,0.5,0.2,0.8,0.1c-0.2-0.1-0.6,0.1-0.5-0.3
				c0-0.1,0.3,0,0.4-0.1l-0.1-0.1c0.1-0.2,0.2-0.1,0.3-0.1c-0.5-0.2-0.9-0.4-1.4-0.6c0.3-0.4,0.7-0.2,1.1-0.2c0,0,0-0.1-0.1-0.1
				c0.1-0.2,0.3,0.1,0.5,0c-0.1-0.1-0.2-0.1-0.3-0.2c-0.5-0.1-0.9-0.2-1.4-0.3c0.1-0.1,0.4,0.1,0.3-0.2c-0.1-0.3-0.6-0.3-0.9-0.4
				c0.3-0.2,0.6-0.2,0.9-0.1c0.3,0.1,0.7-0.1,1,0c-0.5-0.5-1.2,0.1-1.8-0.4c0.1-0.2,0.3-0.2,0.4-0.4c0.4,0.1,0.9-0.1,1.2,0
				c-0.5-0.2-1-0.4-1.5-0.5h-0.1c-0.2-0.1-0.4-0.1-0.6,0c-0.1,0-0.2,0.1-0.4,0.1c-0.4,0.1-0.9,0.1-1.4-0.1h0.1
				c0.2-0.1,0.5-0.2,0.8-0.2h0.4c0.1,0,0-0.2,0.1-0.2c0.3,0,0.6,0,0.8,0c0.4,0.2,0.8,0.3,1.2,0.4c0.2,0,0.3,0.1,0.5,0.1
				c0.1,0.1,0.1,0.1,0.2,0.2c0.4,0,0.7,0.1,1.1,0.3c0.1,0.1,0.1,0,0.1-0.1c-0.1-0.3-0.1-0.5,0.1-0.6h0.1c0-0.1-0.1-0.2-0.1-0.2
				c-0.1-0.1-0.2-0.1-0.2-0.1c0.4-0.1,1-0.2,1.3,0.3h0.2c0-0.2,0.1-0.2,0.2-0.3c0.3-0.1,0.5,0.3,0.8,0.3c0.6-0.1,1.2-0.1,1.8-0.2
				c-0.4-0.1-0.8-0.2-1.3-0.3c-0.1,0-0.2,0-0.2,0c-0.1,0-0.2-0.1-0.2-0.1c0.2-0.2,0.6-0.1,0.8-0.1c0.2,0.1,0.1-0.3,0.2-0.2
				c0.3,0.1,0.6,0.2,0.9,0.3c0.3,0.1,0.6,0.2,0.8,0.4c-0.3-0.6-1.1-0.5-1.1-1c-0.1-0.3,0.4,0.2,0.6-0.1c-1.2-0.3-2.5-0.2-3.7-0.4
				L36,20.9c0.3-0.2,0.8-0.3,1.2-0.3c0.1,0.1,0.1,0.1,0.2,0.1c0.2,0,0.4,0,0.7,0.1v-0.1c-0.5-0.1-0.9-0.1-1.4-0.2
				c-0.3-0.1-0.7,0.1-1.1,0.2c-1.1,0.1-2.2-0.2-3.3-0.1c-0.5,0-1.1,0-1.6,0c-0.5,0.1-1,0.1-1.4,0s-0.8,0-1.2,0.1
				c-0.3,0-0.6,0-0.9-0.2c-0.1-0.1,0-0.1,0.1-0.1c0.8-0.1,1.6,0.1,2.4,0c-0.3-0.3-0.8-0.1-1.2-0.2c-0.1,0-0.1-0.2-0.2-0.2
				c0.3-0.1,0.6-0.1,0.8-0.1c0.1,0,0.1,0.1,0.1,0.1h1.2l-0.1,0c0.8-0.2,1.7-0.1,2.5-0.2c-0.6-0.2-1.3,0.1-1.9-0.1
				c0.1-0.1,0.2-0.1,0.3-0.1c0.1,0,0.2,0,0.3,0c-0.1-0.1-0.3-0.1-0.4-0.2c0.6-0.1,1.2-0.2,1.8-0.2c0-0.1-0.1-0.3,0-0.4
				c0,0.1,0.1,0.1,0.1,0.1s0.1,0.1,0.2,0.1c0.4-0.1,0.7-0.2,1,0.2c-0.2,0.1-0.4,0.2-0.6,0.2c0.2,0.3,0.5,0,0.8,0.1
				c0.1,0,0.1,0.1,0.1,0.1c0.4,0.1,0.8,0,1.2-0.1c0.1,0,0.2,0.3,0.3,0.1c-0.4-0.2-0.8-0.1-1.2-0.4c-0.4-0.2-0.7-0.5-1-0.8l0.1-0.1
				H34h0.1c0,0,0.1,0,0.1,0.1c0.2,0.1,0.3,0.2,0.5,0.2c0.1,0.1,0.1-0.2,0.2-0.2c0.3-0.1,0.6-0.1,0.8,0.1c0.4,0.1,0.8,0.2,1.2,0.2
				c0.1,0,0.1-0.1,0.1-0.1c0,0.1,0.1,0.1,0.1,0.1c-0.4-0.3-0.9,0-1.2-0.3c-0.1-0.1-0.3-0.3-0.5-0.4c0.1-0.1,0.3-0.1,0.4-0.1
				c0.1,0,0.3,0.1,0.3,0.2c0-0.1,0-0.2,0.1-0.2s0.3,0.2,0.4,0.1c-0.2-0.3-0.5-0.1-0.8-0.4c-0.5-0.2-1-0.1-1.5-0.3
				c0-0.1,0.1-0.1,0.1-0.1l0,0l0,0l0,0l0,0c-0.5,0.1-0.9-0.1-1.3-0.3c0.2-0.1,0.4-0.1,0.6-0.1c0.2,0,0.4,0,0.6,0.1
				c0.2,0.1,0.3,0.2,0.5,0.3c0.1,0,0.3,0.1,0.3-0.1c0-0.1-0.1-0.2-0.3-0.3c0.2-0.2,0.4,0.2,0.6,0c0-0.1-0.1-0.1-0.1-0.2
				c0.3-0.2,0.9,0.2,1.1,0c0.2-0.2,0.5,0.1,0.8,0c-0.3-0.2-0.6-0.3-0.9-0.4c-0.4-0.1-0.9-0.2-1.3-0.4c0.1-0.2,0.2-0.2,0.3-0.2
				c-0.2-0.2-0.4-0.2-0.7-0.3c0.3-0.1,0.7-0.1,1,0s0.5,0.2,0.8,0.3c0.1,0.1,0.3,0.2,0.3,0.3c-0.1-0.2-0.2-0.4-0.4-0.5
				s-0.3-0.2-0.5-0.3c-0.1-0.1,0-0.1,0.1-0.1s0.3,0.1,0.4,0.1l0,0l0,0l0,0l0,0c-0.1,0-0.1-0.1-0.1-0.1c0.3-0.3,0.5,0,0.8,0
				c0.1,0,0.1,0.1,0.2,0.2v-0.1c0,0,0-0.1,0.1-0.1c-0.7-0.3-1.4-0.6-2.2-0.7c-0.6-0.1-1.2-0.1-1.8-0.1c-1.2-0.1-2.3,0-3.5-0.1
				c0.7-0.4,1.4,0.1,2.1-0.2c-0.1-0.1-0.3-0.1-0.3-0.2c0.5-0.3,1,0.2,1.4-0.1c-0.6-0.2-1.2-0.1-1.8-0.4c0-0.1,0.1-0.1,0.2-0.1
				s0.1,0,0.2,0c-0.1-0.1-0.2-0.2,0-0.3s0.5,0.1,0.7,0c-0.7-0.1-1.4-0.1-1.8-0.7c0.9-0.2,1.8-0.4,2.7-0.4c0.4-0.1,0.9-0.1,1.4,0
				c0.1,0.1,0.3,0.2,0.3,0.3c0.1-0.2-0.1-0.2-0.1-0.3c-0.3-0.2-0.7-0.4-1.1-0.4c-0.3-0.1-0.5-0.1-0.8-0.1c-0.8-0.3-1.6,0-2.4-0.2
				c-0.1-0.1-0.3,0.1-0.5,0.1c0.1,0.1,0.3,0,0.3,0.1c-0.2,0.4-0.7,0.1-1.1,0.1c-0.7,0.1-1.4,0-2.1-0.2c0.5-0.3,1.1,0,1.7-0.1
				c-0.1-0.1,0.1-0.1,0-0.2c0.3-0.2,0.6,0.2,0.9,0.1c0.1-0.1-0.1-0.2-0.1-0.4c0.1-0.1,0.2,0,0.3-0.1V10c0.5-0.4,1,0,1.5,0.2
				C31.3,10,31,9.9,30.8,9.6c0,0,0,0,0-0.1V9.4c0,0,0,0,0.1-0.1c0,0,0,0,0.1,0c0.5,0,1,0,1.5,0.2c-0.6-0.4-1.3-0.6-2-0.5
				c-1.1,0.2-2.1,0.2-3.2,0.1c-1.6-0.2-3-0.4-4.6-0.7c-0.1-0.1-0.2-0.2-0.2-0.2c0-0.3,0.3,0,0.4-0.2h-0.1l0.1-0.1H23h0.1
				c0,0,0.1,0,0.1,0.1l0,0c0,0,0,0,0,0.1l0,0c0,0,0,0-0.1,0H23c-0.1,0.3,0.3,0.1,0.3,0.1c0.5,0.1,1,0,1.5-0.1
				C25.5,8,26,8.4,26.6,8.5c-0.1-0.1-0.3-0.1-0.2-0.2C26.6,8,27,8.2,27.3,8.2c0.6,0,1.1,0.1,1.6,0.4c0.1,0,0.3,0.1,0.4,0.1
				c0.1-0.1-0.1-0.1-0.1-0.1c-0.7-0.4-1.5-0.3-2.2-0.8l0,0c0,0,0,0,0-0.1l0,0c0,0,0,0,0.1,0c0.1-0.1,0.2,0.2,0.3,0.1
				c-0.6-0.6-1.6,0-2.3-0.4c0.1-0.2,0-0.4,0.1-0.6s0.4-0.1,0.6-0.1c0,0,0.1,0,0.1,0.1H26c0.4,0.1,0.8,0.3,1.2,0.4
				c0.1,0.1-0.1-0.1-0.1-0.2V6.9h0.1c0.1,0,0.3,0.1,0.3,0.2C27.7,7,28,7,28.2,7.1s0.3,0.4,0.6,0.4c0.2-0.3,0-0.4-0.2-0.5l0,0
				c0,0,0,0,0-0.1l0,0c0,0,0,0,0.1,0H29c-0.2,0-0.3-0.1-0.5-0.1c-0.4-0.1-0.7-0.4-1-0.5c0.1-0.2,0.3-0.1,0.4-0.2
				c-0.4-0.3-1,0-1.4-0.3c0.2-0.1,0.4-0.2,0.5-0.2c0.2,0,0.4,0,0.6,0c-0.4-0.1-0.9-0.1-1.3-0.1c-0.1,0-0.2,0-0.3,0
				c-0.1,0-0.2-0.1-0.2-0.2c-0.1-0.2,0.3-0.1,0.1-0.2c0-0.1-0.5,0.1-0.8-0.1h0.1c-0.3-0.3-0.7-0.2-1-0.1c0.2,0.2-0.1,0.2-0.1,0.2
				c-0.4,0-0.9,0.1-1.4,0.1s-1,0.2-1.4,0.3c-0.4,0.1-0.5-0.4-0.8-0.4c0.2-0.1,0.4,0,0.5,0c0.5,0,1.1,0,1.6,0c0.1,0,0.4,0.2,0.5-0.2
				c-0.1,0-0.3,0.1-0.3-0.1c0.5-0.2,0.9,0,1.4-0.2c-0.3,0-0.5-0.2-0.7-0.3c0.2-0.3,0.5,0,0.7,0.1s0.2-0.1,0.3-0.1
				c0.1,0.2,0.3,0.3,0.5,0.3c0.2,0.1,0.4,0.1,0.6,0c-0.4-0.1-0.8-0.3-1-0.6c0.5-0.1,1,0,1.5,0.2c-0.3-0.3-0.6-0.4-1-0.5
				c-1.5-0.2-3-0.2-4.4-0.1c-0.1,0-0.5,0.3-0.6,0.1c-0.1-0.4,0.5-0.2,0.6-0.4c-0.2-0.2-0.6,0.1-0.7-0.1c0.7-0.2,1.4-0.1,2.1,0.1
				C22,3,21.7,3.2,21.6,3V2.9h0.1c0.3,0,0.7,0.2,1,0.1c0.5,0,0.9,0.2,1.3,0.2c-0.2-0.2-0.5-0.4-0.8-0.4c-0.6-0.2-1.2-0.1-1.8-0.4
				l0.1-0.1c0,0-0.1,0-0.1-0.1c0.4-0.5,1,0.1,1.5,0c-0.1,0-0.1,0-0.1,0l-0.1-0.1c0.2-0.2,0.4,0,0.6-0.1c-1.2-0.3-2.4-0.3-3.6-0.5
				c-0.1,0-0.1-0.1-0.1-0.2c0.4-0.4,1,0,1.6-0.2C20.4,1,19.7,1,19,1c-0.6,0.1-1.2,0.1-1.8,0.1c0,0.1,0.3,0.2,0.1,0.2
				c-0.3,0-0.7,0.1-1,0.1c0.3,0.1,0.6-0.1,0.8,0.1c-0.6,0.4-1.4,0.1-1.9,0.6c-0.1,0.1-0.4,0-0.6,0.1c-0.5,0.1-0.9,0.3-1.3,0.5
				c0.5,0.1,1,0,1.5-0.2c0.1,0,0.1,0.2,0.1,0.2c0.5-0.3,0.9-0.2,1.4-0.2c0.1-0.1,0.2,0,0.2-0.1c0.1,0.1,0.3,0.3,0.1,0.4
				c-0.5,0.1-0.8,0.4-1.3,0.3c-0.2,0-0.4,0-0.6,0.1c-0.1,0.1-0.3,0.2-0.4,0.2c0.1,0.1-0.3,0.1-0.1,0.1s0.2-0.1,0.4-0.1
				s0.1,0.3,0.2,0.2c0.1-0.1,0.3-0.2,0.3-0.1c0.6,0.1,1.2-0.3,1.8,0c0,0-0.1,0.3-0.3,0.3c-0.6,0-1.3,0.1-1.9,0.2
				c-0.6,0.1-1.1,0.1-1.7,0c-0.2,0-0.3-0.1-0.5,0c-0.2,0-0.3,0.1-0.4,0.2C12.4,4,12.7,3.9,12.9,4c-0.3,0.3-0.6,0.3-1,0.5
				c-0.1,0.2-0.3,0.2-0.5,0.4c0.8-0.4,1.6-0.5,2.4-0.8c0.1-0.1,0.2,0.3,0,0.3c-0.2,0.1-0.2,0.2-0.3,0.2c0.2,0,0.5-0.1,0.7,0
				s0.4,0,0.4-0.2c0.1-0.2-0.2-0.1-0.3-0.2c0.4-0.3,1.3-0.4,1.2,0.3c0,0.1-0.2,0.1-0.3,0.1s0-0.2-0.1-0.3c-0.1-0.1-0.3,0.1-0.4,0.1
				c0,0.2,0.4,0.1,0.3,0.3C15.2,4.9,15.2,5,15.1,5c-0.8-0.2-1.4,0.2-2.1,0.1c-0.3,0-0.7-0.1-0.9,0.1c0.1,0,0.3,0,0.4,0.1
				c0.1,0.1-0.3,0.1-0.3,0.3h0.1c0,0,0.1,0,0.1,0.1c0.1-0.1,0.1-0.1,0.2-0.1c0.1,0,0.2,0,0.2,0c1-0.2,2.1-0.3,3.1-0.3
				c0.2,0,0.6-0.1,0.6,0.1s-0.6,0.1-1,0.2C15.4,5.8,15.3,6,15.2,6c-0.4,0.1-0.8-0.2-1.3-0.1c0,0.1,0,0.1-0.1,0.1H13v0.1
				c-0.1,0.2-0.3,0.1-0.4,0.1c-0.5-0.3-1.1-0.4-1.6-0.3c0.1,0,0.3-0.1,0.4,0C11.6,6,11.7,6,11.8,6s0,0.4-0.1,0.4
				c-0.5-0.1-0.9-0.2-1.4-0.1c0.1,0.2,0.4-0.1,0.4,0.2c0.1,0.2-0.3,0-0.4,0.2C10,6.5,9.6,6.9,9.1,6.8C9.5,7,9.9,6.7,10.3,6.9
				c0.2,0,0.3,0,0.4-0.1c0.6-0.1,1.2-0.1,1.8,0.1c0,0,0,0.2-0.1,0.2H12c-0.1,0-0.1,0.1-0.1,0.1c0.4,0.2,0.8-0.2,1.2,0.2
				c-0.1,0-0.1,0.2-0.2,0.1c-0.3-0.1-0.5,0-0.8-0.1c0,0.1-0.2,0.1-0.1,0.1c0.2,0.2,0.4,0.1,0.6,0.1c0,0.1,0.3,0.1,0.1,0.2l0,0l0,0
				C13,7.9,13.2,7.9,13.5,8l0,0l0,0l0,0l0,0H13c0.1,0.2,0.5-0.1,0.5,0.2v0.1h-0.1c-0.7,0.1-1.5,0-2.1-0.3c-0.1-0.1,0-0.1,0.1-0.1
				c0.4-0.1,0.6,0.2,1,0.2C12,7.8,11.4,8,11,7.6c0.1-0.1,0.1-0.1,0.2-0.1c0.1,0,0.2,0,0.2,0c-0.4-0.2-0.7,0.1-1.1,0
				C10.1,7.4,10,7.3,9.8,7.4v0.1C9.4,7.8,8.9,7.8,8.3,8c0.5,0.1,0.8-0.2,1.3,0c0,0.2-0.3,0.1-0.3,0.3c0.3,0,0.6,0,0.9,0.1
				C9.4,8.7,8.5,8.5,7.7,9c0.5-0.2,1-0.2,1.5-0.1c0.1,0,0.1,0.2,0.1,0.2C10,8.9,10.6,9,11.2,9.2l0.2,0.2c-0.3,0.1-0.7-0.1-1-0.1
				c-1,0-1.9,0.2-2.6,0.6c0.5-0.2,1.1-0.3,1.7-0.3c0.1,0,0.2,0.2,0.3,0.1c0.5,0.1,0.9,0.1,1.4,0.1c0.6-0.2,1.1-0.1,1.7,0.1
				c-0.3,0.1-0.6,0-0.8,0.1c0,0,0,0.1,0.1,0.1c-0.8,0.4-1.7,0-2.6,0.2c-0.4,0.1-0.7,0.2-1.1,0.2c0.6,0.1,1.2-0.3,1.8,0
				c0.4,0.2,0.9,0.2,1.3,0.1c0.1,0,0.1,0.1,0.1,0.2c0.3,0,0.3,0.1,0.3,0.4c-0.6,0.1-1.2-0.2-1.9-0.2C10,11,10,11.1,10,11.1
				c0.3,0.1,0.5-0.1,0.7,0.1c-0.1,0.1-0.2,0.4-0.3,0.4c-0.5,0.1-0.8-0.1-1.3,0.1c0.3,0,0.7-0.1,0.8,0.2c0.1,0.1-0.2,0-0.3,0.1
				c-0.4-0.2-0.8,0.1-1.2,0.1c0.2,0.1,0.4-0.1,0.6,0c0.2,0.1,0.1,0.1,0.1,0.1c0,0.1-0.1,0.1-0.1,0.1c-0.2,0-0.4,0.1-0.6,0.1
				c-0.5,0-1.1,0-1.6,0c0,0.1-0.2,0.1-0.1,0.1c0.3,0.1,0.6-0.2,0.9,0c-0.4,0.4-0.9,0-1.3,0.2c-0.2,0.2-0.4,0.2-0.6,0.4
				c0.5-0.1,1-0.4,1.5-0.2C7.2,13,7,13,7,13.1c0.1,0.1,0.4-0.1,0.5,0.1c-0.3,0.3-0.8,0.3-1.1,0.5c0.2,0.1,0.5-0.1,0.4,0
				c-0.2,0.4-0.7,0.5-1,0.8l0.7-0.2c0.4-0.1,0.9-0.2,1.3-0.2c0.2,0.1,0.1,0.3,0,0.4c-0.6,0-1.1,0.1-1.7,0.2
				c-0.3,0.1-0.6,0.3-0.8,0.6c0.4-0.2,0.8-0.6,1.2-0.4c0.1,0,0.4,0,0.5,0.1s-0.3,0.4-0.3,0.4c0.4,0.1,0.8-0.1,1.2,0.1
				C7.6,15.8,7,15.7,6.8,16c0,0,0,0.1-0.1,0.1c0.1,0,0.2-0.1,0.4-0.1c0.1,0,0.1,0,0.2,0c0.9-0.2,1.8-0.3,2.7-0.2
				C9.5,16,9.3,16,9,16.1c-1.2,0.3-2.5,0.1-3.7,0.3c0.2,0,0.5,0.1,0.6,0.3c-0.4,0.2-0.8-0.1-1.2,0.1c-0.3,0.2-0.6,0.1-0.8,0.4
				c0.4-0.1,0.8-0.5,1-0.1c0.1,0.2-0.5,0-0.4,0.4c0,0.1,0.4-0.1,0.5,0.1c0,0.1-0.2,0-0.2,0.1c0.5,0.1,1-0.1,1.5,0.1
				c-0.4,0.2-0.8,0.1-1.2,0.1V18c0.1,0.1,0.3,0,0.2,0.1c-0.1,0.1-0.5,0.1-0.7,0.3c0.2,0,0.5,0,0.7,0.1c0.1,0.1,0.5-0.1,0.6,0.1
				c0,0.5-0.5,0.4-0.7,0.4c-0.7,0-1.4,0-2.1,0.1v0.1c0.1-0.1,0.3-0.1,0.4-0.1c0.1,0,0.3,0,0.4,0.1c-0.6,0.4-1.3,0.2-2,0.5
				c0.4,0,0.8,0,1.2,0.2c-0.4,0.4-0.9,0.1-1.4,0.3c0.9,0.1,1.9-0.1,2.8,0.1c0,0.1-0.1,0.1-0.2,0.1c-0.3,0.1-0.5-0.1-0.8,0.1
				c-0.2,0.1-0.4,0.1-0.6,0.2l-0.1,0.1c0,0-0.1,0-0.2,0c0.4,0.1,0.7-0.3,1.1-0.1c0.2,0.1,0.5,0,0.5,0.2c-0.1,0.2-0.3,0.1-0.5,0.3
				c0.2,0,0.5-0.1,0.6,0.1c-0.5,0.3-1.1,0.3-1.6,0.2c-0.6-0.1-1.2-0.1-1.8,0c0.2,0.1,0.4,0,0.5,0.2c-0.3,0.2-0.6,0.4-0.9,0.5
				c0.2,0,0.3-0.1,0.4-0.1s0.2,0.1,0.3,0.1c0.1-0.1,0-0.2,0.1-0.2c0.3,0,0.5-0.1,0.7,0.1c-0.1,0.1-0.4-0.1-0.5,0.2
				C2,22.4,2.6,22,3,22.4c-0.4,0.2-0.8,0.4-1.2,0.5C1.2,23,0.6,23.2,0,23.6c0.2,0,0.5-0.1,0.7-0.1c0.9-0.2,1.8-0.2,2.7-0.2
				c0.2,0,0.6-0.1,0.5,0.2c-0.1,0.4-0.6,0.6-1.1,0.6c0,0,0,0.1,0.1,0.1c0.3-0.1,0.5,0,0.7-0.1c0.2,0,0.4-0.1,0.5-0.3
				c0.2-0.1,0.4-0.1,0.6-0.1c0,0,0,0.1,0.1,0.1v0.1c-0.4,0.4-0.9,0.4-1.4,0.6c0.4,0.1,0.8-0.2,1.2-0.2c0.5,0,0.7-0.2,1.2-0.1
				c-0.1-0.1-0.3-0.1-0.3-0.2c0.1-0.2,0.6-0.8,0.8-0.5c0.2,0.3-0.3,0.3-0.2,0.3c0.5,0.5,0.9-0.4,1.5-0.2v-0.1
				c-0.2-0.1-0.4,0.1-0.6-0.1c0.5-0.3,1.1-0.3,1.5-0.6c0,0,0,0-0.1,0s-0.1-0.1-0.1-0.1c0-0.3,0.3-0.2,0.4-0.2
				c0.8-0.2,1.7-0.6,2.5-0.2c-0.4,0.2-0.9,0.2-1.3,0.2c0.2,0.3,0.7-0.2,0.7,0.2v0.1c0,0.2-0.2,0.2-0.4,0.2c0.1,0.3,0.5,0,0.4,0.2
				c0,0.1-0.1,0.3-0.2,0.3c-0.3,0.1-0.7-0.1-1.1,0c-0.3,0.1-0.9,0-1.3,0.3l0,0c0,0,0,0,0,0.1l0,0c0,0,0,0,0.1,0
				c-0.3,0.2-0.7,0-1,0.3H6.8c0.4,0.1,0.9-0.1,1.3,0l0,0l0.1,0.1c-0.2,0.1-0.3,0.3-0.5,0.4c-0.4,0.1-0.8-0.1-1.2,0.2
				c0.3,0.1,0.6-0.1,1,0.1c-0.3,0.1-0.5,0-0.7,0.1c0,0.1,0,0.1,0.1,0.1c0.5,0,1,0,1.4,0.1c-0.4,0.2-0.7,0.4-1.1,0.6l-0.1-0.1
				c-0.2,0-0.5-0.1-0.7-0.2c-0.3,0-0.6,0-0.9,0.1c0.1,0,0.2,0,0.2,0.1s-0.3,0.1-0.4,0.1c-0.5-0.3-1-0.2-1.4-0.4
				c-0.2-0.1-0.5-0.2-0.7-0.2s-0.5,0-0.7,0.1c0,0-0.3,0-0.2,0.1c0.4,0.1,1-0.1,1.4,0.1c-0.5,0.5-1.3,0.4-1.8,0.9
				c0.8-0.3,1.7-0.4,2.5-0.4c0.3,0,0.7-0.2,1,0.1c-0.7,0.1-1.3,0.5-2,0.7c-0.1,0.1-0.1,0.2-0.2,0.3c-0.6,0.2-1.2,0.5-1.8,0.9
				c0.3,0.1,0.7-0.2,1-0.2s1-0.6,1.4-0.2C3.5,28,3,28,2.8,28.4c0,0.1-0.1,0.1-0.1,0.2c0-0.1,0.1-0.1,0.2-0.2L3,28.3
				c0.3,0,0.6-0.2,0.8-0.3c0.1-0.1,0.3,0.1,0.5,0c0.2-0.1,0.4-0.2,0.6-0.3C5,27.6,5,27.7,5,27.8c0,0.1-0.3,0.2-0.3,0.3
				C4.9,28.2,5.1,28,5.3,28c0.3,0,0.6-0.4,0.9-0.5c0.6-0.2,1.2-0.3,1.8-0.4c0.2,0,0.4-0.1,0.6-0.2c0.7-0.1,1.4-0.2,2.1-0.4
				c0.3-0.1,0.7-0.2,1,0c-0.8,0.3-1.6,0.5-2.5,0.5c-0.2,0.1-0.3,0.4-0.6,0.4c-0.8,0.1-1.6,0.2-2.4,0.5C6.6,28.1,7,27.7,7.4,28
				c0,0.1,0,0.2-0.1,0.2c-0.3,0.1-0.5,0.1-0.8,0.2c-0.2,0-0.3,0.1-0.5,0.1c0.2-0.1,0.3-0.1,0.5-0.1s0.4,0,0.5,0.1
				c-0.1,0.1-0.2,0.2-0.3,0.3c0,0.1,0.1,0.1,0.2,0.1s0.1-0.2,0.3-0.3c0.2-0.1,0.5-0.2,0.8-0.1c0.1,0,0.1,0.1,0.1,0.3
				c0.2-0.1,0.5-0.3,0.7-0.4s0.3-0.2,0.5-0.2l2.1-0.3c-0.4-0.1-0.7,0.1-1.1-0.1c0.7-0.3,1.4-0.5,2.1-0.6c0.1,0,0.3-0.1,0.3,0.1
				c-0.1,0.3-0.5,0-0.7,0.4c0.3,0.2,0.5,0,0.8,0.1c0.1,0,0.1-0.1,0.1-0.1c0.7-0.1,1.6-0.3,2.1,0.1c-0.6,0.2-1.2-0.1-1.8,0
				s-0.9,0.3-1.4,0.5h-0.2c-0.1,0-0.2,0.1-0.3,0.1h-0.5c-0.6,0-1.2,0-1.8,0.2c0,0,0,0.1,0.1,0.1c-0.6,0.3-1.3,0.5-2,0.6
				c-0.5,0-0.9,0.4-1.4,0.6c0.3,0.2,0.6-0.1,1-0.3h0.1c0,0,0.1,0,0.1,0.1s0,0.2,0,0.3c0,0.1-0.1,0.2-0.1,0.2
				c-0.1,0.1,0.1,0.2,0.1,0.3c0.1-0.3,0.4-0.6,0.7-0.3c0.1,0.1,0,0.2,0,0.3c0.1-0.2,0.3-0.3,0.4-0.4c0.2-0.1,0.4-0.2,0.6-0.2
				c0.1,0,0.1,0.2,0,0.3c0.3,0,0.6-0.2,0.8-0.4c0.2-0.1,0.4,0.1,0.6,0c0.5-0.2,0.9-0.4,1.4-0.5c0.1,0,0.1,0.1,0.1,0.1
				c0.2-0.1,0.4-0.1,0.6-0.1c0.1-0.1,0.2,0,0.2-0.1c0,0.1,0.3,0.1,0.1,0.2c0.7,0.1,1.3-0.1,2-0.1c-0.4-0.3-0.7,0-0.9-0.3
				c0-0.1,0-0.2,0.1-0.2c0.7,0,1.3,0,2,0c-0.3-0.3-0.8,0-1.2-0.1c-0.1,0-0.1-0.1-0.1-0.1c0.1-0.1,0.2-0.1,0.3-0.2
				c0.8-0.2,1.6-0.3,2.4-0.3c0.1,0,0.1,0.1,0.1,0.2s0,0.1,0,0.2c-0.2,0.6-0.4,1.2-0.7,1.9C16.1,31,15.6,31.6,15,32
				c-0.8,0.5-1.6,0.9-2.5,1h-10c0,0.2,0,0.7,0,0.7h39.6V33H29z M31.5,26.2c0.1,0.1,0.3,0.1,0.5,0.2c-0.2,0.1-0.5,0.3-0.7,0.1
				c-0.1-0.1,0.3,0,0.2-0.1c-0.1-0.1-0.3,0.1-0.3-0.1S31.4,26.1,31.5,26.2z M34.2,20.9c0.5,0,1,0.1,1.4,0.3l0,0l0,0l0,0l0,0
				c-0.2,0-0.5,0-0.7-0.1C34.6,21,34.4,21,34.2,20.9C34.1,21,34.1,20.9,34.2,20.9z M32.8,15.3c0.1,0,0.1,0.2,0.2,0.1
				c0.3-0.2,0.5,0,0.8,0.1c0,0.1,0.3,0.2,0.1,0.2c-0.3,0.1-0.7,0.1-1,0C32.7,15.7,32.5,15.4,32.8,15.3z M4,19.8
				c-0.1-0.3,0.7-0.3,1.1-0.3c0.1,0,0.1,0.1,0.1,0.1C4.9,19.9,4.2,20.2,4,19.8z M7.3,21.8c-0.1,0.4-0.6,0.1-1-0.1
				c0.1-0.1,0.3-0.2,0.3-0.1C6.9,21.6,7.4,21.6,7.3,21.8z M7.8,21.5c-0.1,0-0.4,0.1-0.4-0.1c0-0.1,0.3-0.2,0.4-0.1V21.5z M7.8,20
				c0,0.1,0,0.2-0.1,0.2c-0.5-0.1-1,0.2-1.5,0C6.4,20,6.4,20,6.6,20v-0.1c-0.3,0-0.5,0-0.8,0c0,0.1-0.1,0.1-0.1,0.2
				C5.6,20.2,5.5,20,5.5,20c0,0.1,0,0.2-0.1,0.2c-0.1-0.2-0.1,0.1-0.2,0C5.2,20,5.1,20,5.1,20c0.4-0.3,0.9-0.4,1.4-0.3
				c0.1,0,0.1,0.1,0.1,0.1c0.5,0,0.9-0.2,1.3,0L7.8,20l-0.1-0.1C7.7,19.9,7.7,19.9,7.8,20z M23.3,26.1c-0.1,0-0.3,0.1-0.3-0.1
				c0,0.1,0,0.1-0.1,0.1h-0.6c-0.1,0-0.1-0.1-0.1-0.2c0.1-0.1,0.2-0.1,0.3-0.1c0.1,0,0.2,0,0.2,0.1c0.1,0,0.1,0.1,0.2,0.2
				c0.1-0.1,0.3-0.2,0.4-0.1C23.4,26,23.4,26.1,23.3,26.1z M22.2,17.2v-0.1c0.2,0,0.5-0.2,0.7,0c-0.1,0.1-0.2,0.2-0.3,0.2
				C22.4,17.3,22.3,17.3,22.2,17.2z M22.5,22.3c-0.1,0.1-0.1,0.1-0.2,0s0-0.4,0.1-0.4C22.5,21.8,22.6,22.2,22.5,22.3z M22.5,23.7
				c0.1-0.3,0.4-0.3,0.7-0.3c0.1,0,0.1,0.1,0.1,0.1c0,0.1-0.2,0.2-0.3,0.3c-0.1,0.1-0.4,0.6-0.6,0.6C22,24.3,22.3,24,22.5,23.7z
				 M23.4,24.8c0,0.1-0.1,0-0.1,0.1c-0.2,0.2-0.3,0.6-0.7,0.4c0.2-0.3,0.4-0.5,0.7-0.7c0.1,0,0.1,0,0.1,0.1V24.8z M23.1,21.1
				C23,21,22.8,20.9,23,20.8s0.3,0,0.5,0c0.4-0.2,0.9-0.2,1.4-0.2c0.1,0,0.1,0.1,0.1,0.1c0.1,0.1,0,0.1-0.1,0.1
				c-0.4,0.1-0.8-0.1-1.1,0.1C23.6,21,23.3,21.1,23.1,21.1z M24.9,24c-0.3,0-0.6,0-1,0c0.1-0.3,0.5-0.1,0.6-0.4
				c0.2,0.2,0.4-0.1,0.6,0.2C25.3,24.1,25,24,24.9,24z M25.6,25.8c0-0.1,0-0.2,0.1-0.2h0.1c0.5,0,0.9,0.1,1.4,0.3
				c-0.1,0.1-0.1,0.2-0.2,0.2c-0.4-0.1-0.7-0.1-1-0.2C25.9,26,25.7,26,25.6,25.8z M27.1,27.5h-0.4c0,0.1,0,0.1-0.1,0.1
				c-0.3-0.1-0.5,0-0.7-0.1c0.2-0.4,0.6-0.2,1-0.2c0.1,0,0.2-0.1,0.3,0.1C27.3,27.5,27.2,27.5,27.1,27.5z M31,24
				c-0.4,0.2-1,0.4-1.2-0.1c-0.1-0.2,0.2-0.3,0.3-0.2C30.3,23.8,30.7,23.6,31,24z M30.5,22.2c0.1,0.1-0.2,0.1-0.4,0.1
				c-0.2,0-0.6,0.1-0.8-0.1C29.7,22,30.3,21.7,30.5,22.2z M29.4,20.8C29.5,21,29.7,21,30,21h0.1v0.1c0,0,0,0,0,0.1c0,0,0,0-0.1,0
				h-0.1h-0.1c-0.3-0.1-0.6,0.1-0.8-0.2C29.2,21,29.2,20.8,29.4,20.8z M27.9,24.4c0.2,0,0.4,0,0.6,0c0.3,0.1,0.6,0,0.8,0.2l0,0l0,0
				l0,0l0,0c-0.3-0.1-0.7,0.1-1-0.1c-0.1,0-0.1,0-0.2,0S28,24.4,27.9,24.4L27.9,24.4C27.8,24.5,27.8,24.5,27.9,24.4L27.9,24.4
				L27.9,24.4z M27.9,27.5c-0.2,0.1-0.5,0.1-0.7,0.1c0.1-0.1,0.3-0.3,0.4-0.2C27.7,27.4,27.9,27.4,27.9,27.5z M27.5,25.7
				c-0.3-0.1-0.5,0.1-0.7,0s-0.2,0-0.2-0.1s0-0.1,0.1-0.1c0.1-0.1,0.1,0.2,0.2,0.1s0.2-0.1,0.4-0.1c0.1,0,0.2,0.1,0.3,0.1
				C27.6,25.6,27.5,25.7,27.5,25.7z M27.5,22.5c0,0.1-0.2,0-0.3,0.1c-0.1,0.1-0.1,0-0.1-0.1s0.1-0.1,0.3-0.1
				C27.5,22.4,27.5,22.5,27.5,22.5z M27.2,21.4c0.1,0,0.1,0.1,0.1,0.1c0.1,0.1,0,0.1-0.1,0.1s-0.2-0.2-0.4-0.1
				c-0.3,0.1-0.6-0.1-0.9,0.1c0.3,0.1,0.6-0.1,0.8,0.1c-0.6,0.3-1.2,0.5-1.9,0.4h-0.1c0,0,0,0.1,0.1,0.1c-0.2,0.1-0.3,0.3-0.6,0.3
				c-0.1,0-0.1,0.1-0.1,0.1c-0.1,0-0.1-0.1-0.1-0.1c0.1-0.3,0.3-0.3,0.6-0.3c-0.3,0-0.6,0-0.9-0.2c0.1-0.2,0.3-0.3,0.6-0.3
				c0.2,0,0.4,0,0.6,0.1l-0.1,0.1c0.3-0.1,0.6,0.1,0.8-0.2c0.1-0.1-0.3-0.1-0.3-0.2s0.2-0.1,0.3-0.1c0.3,0,0.6,0.1,0.9,0.1
				C26.7,21.5,26.9,21.5,27.2,21.4L27.2,21.4z M27,20.4c0-0.1-0.1-0.1-0.1-0.1c-0.1,0,0,0.1-0.1,0.1c-0.2,0-0.4-0.1-0.5-0.1
				c-0.5-0.1-1.1,0.1-1.5-0.2c0.1-0.6,0.6-0.1,1-0.3c-0.8-0.4-1.7,0.4-2.3-0.1c-0.1-0.1,0.3-0.1,0.4-0.1c-0.1-0.1-0.2-0.1-0.4-0.1
				s-0.1-0.1-0.1-0.1c0.3-0.3,0.6-0.6,1-0.8c0.2-0.1,0.3-0.1,0.5,0c0.2,0,0.3,0.1,0.4,0.2c-0.3,0.2-0.7-0.1-0.8,0.3
				c0,0.1,0,0.2,0.1,0.2s0.4-0.1,0.6-0.1c0.4,0.1,0.6,0.4,1,0.2c0.1-0.1,0.3-0.3,0.4-0.2c0,0,0.1,0,0.1,0.1v0.1v0.1l-0.1,0.1h-0.3
				c0.1,0.5,0.7,0.1,0.9,0.5C27.2,20.3,27,20.3,27,20.4L27,20.4z M24.6,14.9c0.1-0.1,0.2-0.1,0.3-0.1c0.1,0,0.5-0.1,0.7,0.1
				C25.3,15.2,24.5,15.4,24.6,14.9z M27.6,13.1c0.3-0.1,0.9-0.2,1,0.1c0.1,0.1-0.3,0.1-0.4,0.1c-0.2,0.1-0.5,0.2-0.8,0.2
				s-0.5-0.1-0.8-0.2C27,13.2,27.3,13.2,27.6,13.1L27.6,13.1z M28.7,18.6c0-0.1,0.1-0.1,0.1-0.1c0,0.1,0.1,0.1,0.1,0.1
				c0.4,0,0.8,0.1,1.1,0.3c-0.3,0.1-0.2,0.2-0.3,0.4c-0.3-0.2-0.8-0.1-1.1-0.4c0-0.1,0.1-0.1,0.2-0.1C28.8,18.7,28.7,18.7,28.7,18.6
				z M28.6,15.5c0-0.1,0.1-0.1,0.2-0.1s0.5,0,0.3,0.2c-0.1,0-0.2,0-0.3,0C28.7,15.6,28.6,15.6,28.6,15.5z M27.8,13.9
				c0.1-0.1,0.3-0.1,0.5-0.1s0.3,0,0.5,0.1c0.1,0.1,0.3-0.1,0.4,0.1c-0.2,0-0.5,0-0.7,0S28,14,27.8,13.9L27.8,13.9z M27.6,15.2
				c0.1,0.1,0.5,0.1,0.4,0.2c-0.2,0.4-0.8,0-1.2-0.1c0.1-0.1,0.3-0.1,0.4-0.1C27.3,15.1,27.5,15.1,27.6,15.2z M26.8,13.8
				c0-0.1,0.1-0.1,0.2-0.1v0.1C27,13.9,26.8,13.9,26.8,13.8z M26.8,16.4c-0.2,0.1-0.3,0.2-0.5,0.2s-0.4,0-0.6-0.1
				c0.2-0.1,0.4-0.1,0.5-0.3C26.4,16.4,26.6,16.2,26.8,16.4z M27.1,17.2c-0.1-0.1,0-0.1,0.1-0.1s0.1,0,0.1,0
				c0.3,0.2,0.6-0.1,0.9,0.2c0,0.1,0,0.1-0.1,0.1C27.8,17.2,27.4,17.4,27.1,17.2z M27.3,19.1c-0.1-0.1,0.1-0.4,0.4-0.4
				c0.1,0,0.1,0.1,0.1,0.1l-0.1,0.1c0.3,0.1,0.6,0,0.8,0.3c0.1,0.1,0,0.1-0.1,0.1C28.1,19.3,27.5,19.5,27.3,19.1z M28.4,19.7
				c-0.1,0-0.4,0.1-0.5-0.1c0.6-0.1,1.2-0.2,1.8-0.1c0.2,0,0.5,0,0.6,0.1C29.7,20,29.1,19.7,28.4,19.7L28.4,19.7z M30.8,18.2
				c0,0.1,0,0.1-0.1,0.1c-0.7,0.1-1.4,0-2-0.2c0.2-0.2,0.5,0.1,0.7-0.2c0.1-0.1,0.4,0.1,0.6,0c0.1-0.1,0.3-0.1,0.5,0
				C30.6,18,30.7,18.1,30.8,18.2z M30,12.9c-0.1,0-0.1,0-0.1-0.1c0.1-0.1,0.2-0.1,0.3-0.1c0.1,0,0.2,0,0.3,0.1
				c-0.1,0.2-0.2,0.1-0.3,0.1c0.5,0.3,1.1-0.2,1.6,0.1c-0.4,0.1-0.9,0.2-1.4,0.3c-0.3,0.1-0.4-0.2-0.7-0.3
				C29.7,12.8,29.8,13.1,30,12.9z M29.5,13.5c0,0.1,0,0.1-0.1,0.1c-0.4-0.2-0.8,0.2-1.2-0.1c0.3-0.2,0.6-0.3,0.9-0.2
				C29.3,13.4,29.4,13.4,29.5,13.5L29.5,13.5z M27,12.5c0.7,0,1.5,0.1,2.2,0.1c-0.2,0.4-0.5,0-0.8,0.1s-0.3,0.2-0.4,0.2
				c-0.3-0.2-0.7-0.2-1-0.3C26.8,12.6,26.9,12.5,27,12.5z M26,11.4c0.3,0,0.5,0.1,0.7,0.3c-0.1,0.1-0.1,0.1-0.1,0.1
				c-0.3-0.1-0.7,0.1-1-0.2C25.7,11.5,25.8,11.3,26,11.4z M24,9.4c0.6,0,1.3-0.2,1.9,0.2l0,0c0,0,0,0,0,0.1l0,0c0,0,0,0-0.1,0
				c-0.3,0-0.7-0.3-1-0.1s-0.9,0-1.4,0c-0.1,0-0.1-0.1-0.1-0.2C23.5,9.3,23.8,9.4,24,9.4z M24,11.9c0.1,0,0.3,0,0.3,0.1
				c-0.1,0.4-0.7,0.2-0.9,0.1C23.5,12,23.7,11.9,24,11.9L24,11.9z M23.6,16c0.1,0.1,0.2,0.1,0.3,0.2c0.1,0.1,0,0.1-0.1,0.1
				s-0.5,0.2-0.5,0S23.5,16,23.6,16z M23.3,17.5L23.3,17.5l-0.2,0.1c-0.1-0.1,0-0.1,0.1-0.1C23.2,17.4,23.3,17.4,23.3,17.5z
				 M23.4,6.6c0.1,0,0.2,0,0.2,0.1s0.3,0,0.4,0.1c-0.2,0.1-0.5,0.2-0.7,0.1C23.4,6.8,23.3,6.7,23.4,6.6z M22.9,6.8
				c0.1,0,0.1,0.1,0,0.2s-0.3,0.1-0.3-0.1C22.6,6.8,22.8,6.7,22.9,6.8z M23.3,7.2c0.1,0,0.1-0.1,0.2-0.1c0.1-0.1,0.1,0.1,0.1,0.1
				c-0.1,0.1-0.3,0.2-0.5,0.2s-0.4,0-0.5-0.1C22.7,7.1,23,7.2,23.3,7.2L23.3,7.2z M22.7,11.7c0.1,0,0.2,0,0.3,0
				c0.1,0,0.2,0.1,0.2,0.1c-0.2,0.1-0.5,0.4-0.7,0.3c-0.1,0-0.1-0.1-0.1-0.1l0.1-0.1c-0.1,0-0.3,0.1-0.3-0.1
				C22.3,11.6,22.5,11.7,22.7,11.7z M22.9,14.1c0.1,0.1,0,0.1-0.1,0.1h-0.5c-0.1,0-0.1-0.1-0.1-0.1c0.1-0.1,0.2-0.2,0.3-0.2
				C22.6,13.9,22.8,14,22.9,14.1z M22,6.3c0,0,0,0.1,0,0.2c-0.2,0.2-0.5,0.4-0.8,0.2c0.1-0.2,0.3-0.1,0.4-0.3
				C21.8,6.2,21.9,6.5,22,6.3z M21.1,6.3h0.1c0.1,0,0.3-0.1,0.3,0S21.2,6.7,21,6.5C21,6.4,21,6.3,21.1,6.3z M19,6.7
				c0.5-0.1,1.1-0.1,1.6,0.1C20.5,7.1,20.3,7,20.2,7c-0.1,0-0.4,0.1-0.5,0.1c-0.1-0.1-0.3-0.2-0.5-0.2c0,0.2-0.1,0.2-0.1,0.2
				c-0.4,0.1-0.9,0-1.3-0.1C18.1,6.8,18.5,6.8,19,6.7z M19.1,12.5c0,0.1,0,0.1-0.1,0.1c-0.2-0.1-0.6-0.1-0.5-0.4
				c0-0.1,0.2-0.2,0.4-0.2c0.2,0,0.3,0.1,0.3,0.2c0.1,0.1-0.2,0.1-0.3,0.1L19.1,12.5z M18.4,9.4c0-0.1,0.2-0.1,0.2,0
				S18.4,9.4,18.4,9.4z M18.9,13L18.9,13C18.9,13.1,18.9,13.1,18.9,13c0,0.1,0,0.1,0,0.1l0,0c-0.2,0-0.4,0-0.5-0.1l-0.1,0.1
				c-0.1,0-0.1-0.1-0.2-0.1c0-0.1-0.1-0.1-0.1-0.2c0-0.1,0.2-0.1,0.3-0.1C18.5,12.8,18.7,12.9,18.9,13z M18,13.9
				c0-0.1,0-0.1,0.1-0.1s0.1,0.1,0.1,0.1l0.1,0.1C18.2,14.1,18.2,14.1,18,13.9z M18,21.1c-0.1,0-0.1-0.1-0.1-0.2s0.1-0.1,0.1-0.1
				s0,0,0.1,0.1V21C18.1,21,18.1,21,18,21.1L18,21.1z M17.7,10.5c-0.1,0.1-0.1,0.2-0.2,0.2c-0.3,0-0.5,0.2-0.7,0.3s-0.1-0.1-0.2-0.1
				c-0.4,0.1-0.9,0-1.2-0.2c0.3-0.3,0.7,0,1.1-0.1c0.2-0.1,0.4-0.1,0.6-0.1S17.5,10.4,17.7,10.5z M14.1,20.3
				c-0.2,0.1-0.4,0.1-0.5,0.1c-0.2,0-0.4-0.1-0.5-0.2c0.1-0.1,0.3,0,0.4,0.1c0.3,0,0.4-0.2,0.6-0.2c0.4-0.1,0.7-0.3,1.1-0.3
				c0.2,0,0.3,0.2,0.4,0.3C15.2,20.2,14.7,20.3,14.1,20.3L14.1,20.3z M14.5,21.1c-0.2,0.2-0.4,0.2-0.6,0.2s-0.4-0.1-0.6-0.2
				c0.1-0.1,0.3,0,0.4,0.1C14.1,21.2,14.3,20.8,14.5,21.1z M11.8,20.2c-0.1,0-0.4,0.1-0.4-0.1c0.1-0.4,0.5-0.2,0.8-0.3
				c0.4-0.1,0.8-0.1,1.2-0.1c0.1,0,0.1,0.1,0.1,0.1C13,20.1,12.4,20,11.8,20.2z M15.4,17.5c-0.1,0-0.2-0.1-0.2-0.1s0.1-0.3,0.3-0.2
				c0.1,0.2,0.3,0.4,0.4,0.6c0,0.1,0,0.1-0.1,0.1s-0.1,0-0.1,0l-0.1-0.1v-0.1C15.6,17.5,15.5,17.5,15.4,17.5z M13.3,10.6
				c0.3-0.1,0.5-0.1,0.8-0.1s0.6,0.1,0.8,0.2c-0.1,0.3-0.3,0.2-0.6,0.2s-0.6,0-0.9-0.1c0.1-0.1,0.3-0.1,0.5-0.1
				C13.8,10.6,13.5,10.8,13.3,10.6L13.3,10.6z M15.3,11.9c0.1,0.1,0,0.3,0.1,0.4c0.1,0.1,0.4,0,0.5,0.1c0.1,0.1-0.1,0.1-0.2,0.2
				c-0.3-0.2-0.7,0.2-0.8,0s0.1-0.1,0.3-0.2c-0.6-0.1-1.2-0.2-1.8-0.2C14,12,14.6,11.9,15.3,11.9z M16.2,13.8c0,0.1-0.1,0.1-0.1,0.1
				c-0.2-0.1-0.5-0.2-0.6-0.4c0-0.1,0-0.1,0.1-0.1s0.3,0.1,0.4,0.1C16.1,13.5,16.1,13.7,16.2,13.8z M13.6,14.5
				c0.1-0.3,0.5-0.1,0.9,0c-0.1,0.1-0.3,0.2-0.3,0.4C14.1,15,13.5,14.6,13.6,14.5z M14.7,16.3c-0.2,0.1-0.3,0.3-0.5,0.3H14
				c-0.1,0-0.1-0.1-0.1-0.1C14.1,16.2,14.5,16,14.7,16.3z M14.5,14.8c0.1-0.1,0.3-0.1,0.5-0.1s0.3,0,0.5,0.1
				C15.4,14.9,15.2,15,15,15S14.7,14.9,14.5,14.8z M15.8,19.2c-0.2,0.2-0.4,0.3-0.7,0.3c-0.4,0-0.7,0.3-1.1,0.1
				c0.2-0.4,0.6-0.1,0.9-0.4C15.2,19.1,15.5,19.1,15.8,19.2L15.8,19.2z M15.8,21.3c0,0.1,0.3,0.1,0.1,0.2s-0.3-0.1-0.3,0.1v0.1
				c-0.3,0.1-0.7,0.2-0.8-0.1C15,21.3,15.4,21.4,15.8,21.3z M16.5,23.2c-0.2,0.3-0.6-0.1-0.8,0.2c-0.1-0.2-0.4,0.1-0.5-0.1
				C15.6,23,16.1,23.1,16.5,23.2z M16.3,17.3c-0.1,0-0.2,0.1-0.3-0.1c0-0.2,0-0.1,0-0.1h0.1C16.3,17.1,16.5,17.2,16.3,17.3z
				 M16.9,17.5c-0.2,0.1-0.3,0.1-0.5,0l0.1-0.1h0.1h0.1C16.9,17.5,16.9,17.5,16.9,17.5z M16.3,21.2c0.2,0.1,0.6,0.1,0.5,0.4
				c0,0.3-0.5,0.2-0.8,0C16.1,21.4,16.2,21.2,16.3,21.2z M17.1,22.2c0.1,0.1,0.1,0.3,0,0.3c-0.3,0.1-0.7,0-0.7-0.2
				C16.4,22.1,16.9,22,17.1,22.2z M16.2,23.6c0.3,0,0.6,0,0.9,0c0.1,0.1,0.1,0.1,0.1,0.2s0,0.2-0.1,0.3c-0.4-0.5-1-0.2-1.6-0.2
				c-0.1,0-0.1,0-0.1,0l-0.1-0.1C15.5,23.6,15.8,23.5,16.2,23.6L16.2,23.6z M17.2,24.1c0,0.1,0.1,0.2-0.1,0.3
				c-0.1,0.1-0.1-0.1-0.3-0.1c-0.1,0-0.1-0.1-0.1-0.1C16.9,24.2,17.1,24.1,17.2,24.1z M15.7,16.3c0.3-0.1,0.6-0.5,0.8-0.3
				c0.1,0.1,0.3-0.1,0.3,0c0.1,0.2,0.3,0.1,0.5,0.3l0,0c0,0,0,0,0,0.1l0,0c0,0,0,0-0.1,0C16.7,16.5,16.2,16.4,15.7,16.3z M16.7,14.1
				c-0.1,0-0.1-0.3-0.2-0.3c0.1-0.1,0.2-0.1,0.3-0.1c0.1,0,0.2,0,0.3,0.1c0.1,0.1,0.3,0.1,0.4,0.2C17.4,14.2,17,14,16.7,14.1z
				 M16.8,7.7c0.1,0,0.1,0.1,0.1,0.1c-0.1,0.1-0.3,0.1-0.3,0S16.7,7.7,16.8,7.7z M15.4,7.2c0.2,0,0.4,0,0.5,0c0.2,0,0.4,0,0.6,0.1
				c-0.2,0.1-0.3,0.2-0.4,0.3s-0.6-0.1-0.8-0.2C15.4,7.2,15.4,7.2,15.4,7.2z M14.9,7.3h0.3c0.1,0,0.1,0.1,0.1,0.1
				C15.2,7.5,14.9,7.6,14.9,7.3C14.9,7.4,14.9,7.3,14.9,7.3z M14.7,8.7c0.3,0,0.5,0,0.8,0.1c-0.2,0.1-0.4,0-0.6,0.1
				c0.3,0,0.7-0.2,0.9,0.2c-0.5,0.2-1,0.2-1.5,0.1c-0.2,0-0.3-0.1-0.5,0.1c0-0.1-0.1-0.2-0.1-0.2C13.6,9,13.6,9,13.5,9
				C13.8,8.6,14.3,8.9,14.7,8.7L14.7,8.7z M14.1,10.2c0.5-0.1,1.1-0.1,1.6,0c0-0.1,0-0.1,0.1-0.1c0.3,0,0.7-0.2,0.8,0.1
				c0.1,0.2-0.2,0.1-0.3,0.1c-1,0.1-2.1,0.2-3.1,0.1C13.4,10.1,13.7,10.3,14.1,10.2L14.1,10.2z M13.9,15.8c-0.1,0.1-0.1,0.1-0.2,0.1
				c-0.1,0-0.2,0-0.2,0c-0.2,0-0.4-0.1-0.5-0.1c0.2-0.1,0.3-0.1,0.5-0.1C13.6,15.7,13.8,15.7,13.9,15.8z M13.8,17.8
				c-0.5,0.2-1,0.2-1.4,0.1c0.1-0.3,0.3-0.2,0.5-0.2C13.2,17.7,13.5,17.5,13.8,17.8L13.8,17.8z M12.1,12.6v0.1
				c-0.2,0.1-0.4,0.2-0.5,0.2c-0.2,0-0.4,0-0.6-0.1C11.3,12.6,11.7,12.7,12.1,12.6z M12,14.6L12,14.6c0.3,0.4,0.6-0.1,0.9,0.1
				c0,0.1-0.2,0-0.2,0.1c-0.3,0.6-1,0.4-1.4,0.2c-0.2,0-0.4-0.1-0.7-0.2c0.2-0.1,0.4-0.2,0.7-0.3C11.5,14.5,11.7,14.5,12,14.6z
				 M9.9,15.2c0.2,0,0.3,0,0.5,0c0.3,0,0.6-0.1,0.9-0.1c0.1,0.1,0.1,0.2,0.3,0.3c-0.1,0.2-0.4,0-0.6,0.1v0.2
				c-0.5,0.3-0.9-0.1-1.2-0.4C9.8,15.3,9.8,15.2,9.9,15.2L9.9,15.2z M9.8,17.2c0.1-0.1,0.2,0.1,0.3,0.2s0,0.2-0.1,0.2
				c-0.2,0-0.4,0.1-0.6-0.1C9.5,17.4,9.6,17.2,9.8,17.2z M9.4,18.9l3.7-0.2c-0.3-0.2-0.7,0-1-0.1c0,0-0.3-0.1-0.1-0.2
				c0.9-0.2,1.9-0.2,2.9-0.3c0.2,0,0.4,0,0.5,0c0.2,0.1,0.3,0.2,0.4,0.4c0.1,0.3-0.3,0.1-0.3,0.1c-0.7,0.1-1.4-0.2-2,0.2
				c0.4-0.1,0.8-0.1,1.2,0.1c0,0,0.3,0.1,0.1,0.1c-0.7,0.2-1.5,0.3-2.2,0.3c-0.4,0-0.7,0-1-0.1c-0.9-0.1-1.8-0.1-2.6-0.1
				c-0.1,0,0-0.1,0.1-0.1C9.2,18.9,9.3,18.9,9.4,18.9z M11,19.7c-0.1,0.1-0.2,0.1-0.3,0.1c-0.1,0.6-0.7,0.3-1,0.6
				c-0.2,0.1-0.2-0.2-0.3-0.3c0.2-0.2,0.5-0.1,0.7-0.2c0.1,0,0.1-0.2,0.1-0.2c-0.5-0.1-0.9,0.2-1.4,0c-0.1-0.1-0.3-0.2-0.1-0.2
				c1-0.3,2-0.3,2.9,0v0.1C11.3,19.7,11.1,19.6,11,19.7z M8.3,25c-0.1,0-0.1-0.2-0.2-0.4v-0.1l0.1-0.1h0.1h0.1
				c0.3,0.2,0.5,0.1,0.7,0.1c0.3,0,0.6-0.2,0.8-0.3c0.1,0,0.3,0.1,0.4,0.1c0.1,0,0.3-0.1,0.4,0C10.1,25,9.2,24.9,8.3,25z M10.7,25.5
				c-0.1,0-0.1,0.1-0.1,0.2c-0.1,0.1-0.3,0.2-0.4,0.2c-0.2,0-0.3-0.1-0.4-0.2c-0.3-0.1-0.4,0.2-0.7-0.1c0.8-0.3,1.6-0.4,2.4-0.6
				c0.2-0.1,0.4-0.1,0.7-0.1c0.2,0,0.4,0,0.7,0.1C12.1,25.3,11.4,25.5,10.7,25.5L10.7,25.5z M12.8,23.8c-0.5,0.1-1,0.2-1.5,0.1
				c-0.8,0-1.5,0.1-2.2,0.4C9,24.4,9,24.2,9,24.2C9.2,24,9.5,24,9.7,23.9c0.1-0.1-0.3-0.1-0.3-0.1c0.3-0.3,0.7-0.1,1-0.2l-0.1-0.1
				c0-0.1,0.2-0.1,0.3-0.2c0.3-0.1,0.7,0.1,1-0.1c0.1-0.2,0.3-0.4,0.5-0.4h0.4l0.1,0.2c-0.1,0.2-0.3,0.2-0.5,0.4
				c0.1,0,0.1,0.1,0.1,0.1c0.1,0,0.1,0,0.2,0c0.1,0,0.1-0.1,0.2-0.1c0.2-0.1,0.3,0.1,0.4,0.3C13.1,23.8,12.9,23.8,12.8,23.8
				L12.8,23.8z M13.3,22.7c-0.1-0.2-0.3-0.1-0.3-0.1c-0.6-0.1-1.2,0-1.7,0.2c-0.2,0.1-0.6,0.2-0.6,0c-0.1-0.2,0.3-0.1,0.5-0.4
				c0.1-0.1,0.4,0.1,0.5,0c0.6-0.3,1.3-0.3,2-0.1c0.7,0,1.4,0.2,2,0.5C15.3,22.9,15,23,14.6,23c-0.2,0-0.3-0.3-0.5-0.4
				C13.8,22.6,13.5,22.6,13.3,22.7z M17.2,27.4c-0.1,0.3-0.4,0.1-0.6,0.1c-0.2,0.1-0.6,0.3-0.6,0c0-0.1,0-0.2,0.1-0.2
				c0.2,0,0.3-0.1,0.5-0.1s0.4-0.1,0.6,0V27.4z M17.3,25.6c-0.1,0.1-0.3,0.2-0.4,0.1c0-0.2,0.1-0.3,0.1-0.4c-0.7,0-1.4,0.1-2.1,0.1
				c-0.4,0.1-0.9,0.3-1.1,0c-0.1-0.1-0.3-0.1-0.1-0.2c0.7-0.2,1.5,0.3,1.9-0.4c0.5,0.1,1-0.1,1.5,0.1C17.4,25,17.4,25.4,17.3,25.6z
				 M17.4,15c0.1,0,0.1,0,0.2,0s0.1,0.1,0.2,0.1c0.1,0.2-0.2,0-0.3,0.1C17.3,15.3,17.2,15.1,17.4,15z M17.5,19.9L17.5,19.9
				c0.4,0.3,0.5,0.8,0.1,0.8C17.5,20.7,17.4,20.2,17.5,19.9z M17.8,21.4c0-0.1,0.1-0.1,0.3,0C17.9,21.5,17.8,21.5,17.8,21.4z
				 M18.1,22.3c-0.2-0.2-0.2-0.4-0.3-0.6c0-0.1,0.1-0.1,0.2-0.1s0.1,0.1,0.1,0.1C18.2,21.8,18.3,22.1,18.1,22.3z M18.4,16
				c-0.1,0.1-0.4-0.3-0.1-0.4c0,0,0.1,0,0.1,0.1C18.4,15.7,18.5,16,18.4,16z M18.6,24.1c-0.1,0-0.1-0.1-0.1-0.2s0.1-0.1,0.1-0.1
				s0.1,0,0.1,0.1V24C18.7,24,18.7,24,18.6,24.1C18.7,24,18.6,24.1,18.6,24.1z M19.1,14.6c-0.1,0.1-0.2-0.1-0.3-0.1
				c-0.1-0.1,0.1-0.1,0.2-0.1s0.1,0.1,0.1,0.1C19.2,14.5,19.1,14.6,19.1,14.6z M19.1,13.7c0-0.1-0.2-0.1-0.1-0.2
				c0.1-0.2,0.3-0.1,0.3,0.1v0.1c0,0,0,0-0.1,0.1C19.2,13.7,19.2,13.7,19.1,13.7L19.1,13.7z M19.8,22.4c-0.1-0.5-0.2-1.1-0.2-1.7
				c0-0.1,0.2-0.1,0.3-0.1c0.1,0,0.1,0,0.2,0.1l0.1,0.1C20.1,21.4,20.2,22,19.8,22.4L19.8,22.4z M19.5,18.9c0.1-0.1,0.1-0.2,0.2-0.2
				l0,0l0,0l0,0l0,0c-0.1,0.1-0.1,0.1-0.1,0.1C19.6,19.1,19.6,19,19.5,18.9L19.5,18.9z M19.3,18.4C19.3,18.4,19.3,18.3,19.3,18.4
				C19.3,18.3,19.3,18.3,19.3,18.4c0-0.1,0-0.1,0-0.1s0,0,0.1,0s0.3-0.1,0.4,0.1l0.1-0.1l0.2,0.2c-0.1,0.1-0.3,0.1-0.4,0.1
				S19.5,18.5,19.3,18.4z M19.5,16.5c0-0.1,0.3-0.3,0.4-0.1c0.1,0.1,0,0.2-0.1,0.2h0.4c0.1,0,0.4,0.1,0.3,0.1
				c-0.2,0.1-0.6-0.1-0.8,0.1c0-0.1-0.2,0-0.2-0.1S19.5,16.6,19.5,16.5C19.5,16.6,19.5,16.6,19.5,16.5z M20.1,12.3
				c0,0.1-0.3,0.2-0.5,0.1c0.1-0.1,0.1-0.2,0.3-0.2C19.9,12.2,20.1,12.1,20.1,12.3z M19.8,10.6h0.1H19.8L19.8,10.6z M20.1,15.7
				c0.1-0.1,0.2-0.1,0.3-0.1c0,0.1,0.2,0.1,0.1,0.2c0,0,0.1,0,0.1,0.1V16c0,0.1-0.2,0.2-0.3,0.2c-0.1,0-0.2-0.3,0-0.4h0.1
				C20.2,15.9,20.2,15.8,20.1,15.7L20.1,15.7z M20,14.8h-0.1c0-0.1-0.3-0.1-0.1-0.2c-0.1-0.1-0.1-0.4,0-0.4c0.1-0.1,0.3-0.1,0.4,0.1
				c0.1,0.1,0.3,0.1,0.3,0.2c-0.1,0.2-0.5-0.1-0.7,0.1c0.1,0,0.3-0.1,0.5,0.1c0.1,0.1,0,0.1-0.1,0.1C20.2,14.8,20,14.8,20,14.8z
				 M20,16.1c0,0.1,0,0.1-0.1,0.1s-0.3,0.1-0.4-0.1C19.4,16,19.7,16,19.8,16C20.1,16.1,20,16.1,20,16.1z M20.7,14.7
				c-0.1,0.1-0.3,0.1-0.4,0l0.1-0.1h0.1C20.5,14.6,20.6,14.6,20.7,14.7C20.6,14.7,20.7,14.7,20.7,14.7z M20.6,15.3
				c-0.1-0.1-0.3-0.2-0.3-0.4c0.1-0.1,0.1,0,0.1,0.1c0-0.1,0.1-0.1,0.1-0.1c0.1,0,0.1,0.1,0.1,0.2C20.6,15.2,20.6,15.2,20.6,15.3
				C20.7,15.2,20.6,15.3,20.6,15.3z M19.8,13.7c-0.1,0-0.1-0.1-0.1-0.2c0.2-0.3,0.6-0.1,0.8-0.1c0.1,0,0.1,0.1,0.1,0.1
				C20.4,13.8,20.1,13.7,19.8,13.7L19.8,13.7z M20.3,10.9c-0.1-0.1-0.3-0.4-0.1-0.5c0.1,0,0.2,0,0.3,0.1c0.2,0.1,0.3,0,0.4,0.2
				s-0.1,0.2-0.1,0.2c-0.1,0-0.2,0.1-0.3,0.1S20.3,10.9,20.3,10.9z M20.3,13.2c0,0.1,0.3,0.1,0.1,0.2c-0.2,0-0.4-0.1-0.5-0.1
				C20,13.1,20.2,13.2,20.3,13.2z M19.6,15.6h0.1c0,0.1,0.3,0.2,0.1,0.2C19.7,15.8,19.6,15.9,19.6,15.6
				C19.5,15.6,19.5,15.6,19.6,15.6z M20.2,17.6L20.2,17.6c0.1-0.1,0.1-0.1,0.1-0.1h0.1c0,0,0.1,0,0.1,0.1c0.1,0.1,0,0.4-0.1,0.4
				C20.3,18,20.2,17.8,20.2,17.6z M20.6,25.8c-0.1-0.5-0.3-1.2,0.1-1.6c0.1-0.1,0.2,0,0.2,0.1C20.9,24.8,20.8,25.3,20.6,25.8z
				 M20.8,22.9c-0.1-0.1-0.1-0.1-0.1-0.1c0.1-0.4-0.1-0.8,0.3-1c0,0.2,0,0.4,0,0.6C21,22.6,20.9,22.7,20.8,22.9z M21.2,21.3
				c-0.1,0.1-0.1,0.1-0.2,0.2s-0.1,0-0.1-0.1c0-0.2,0-0.5,0.2-0.5v-0.1l0.1-0.1v0.1C21.3,20.9,21.3,21.1,21.2,21.3L21.2,21.3z
				 M19.2,8.1c0.1,0,0.1,0.1,0.1,0.1h0.5c0-0.1,0-0.1,0.1-0.1S20,8.2,20,8.2c0.2-0.1,0.5,0,0.6,0.1c-0.4,0.3-0.8,0-1.2,0
				c-0.4,0.1-0.7,0-1-0.2c0.4-0.3,1-0.4,1.5-0.3c0.6-0.1,1.1-0.1,1.7,0C20.8,8.3,20,7.9,19.2,8.1L19.2,8.1z M22.2,27.9
				c-0.5-0.2,0-0.9-0.1-1.4c0.1,0,0.1-0.3,0.2-0.1c0,0.1,0,0.1-0.1,0.2v0.1c0,0,0,0,0,0.1c0.1,0.1,0.2,0.1,0.2,0.1
				c0,0.2,0.1,0.3,0,0.4C22.5,27.4,22.3,27.9,22.2,27.9z"/>
		</g>
	</g>
</g>
<g>
	<g>
		<defs>
			<rect id="SVGID_00000005951962423741000730000015860621892092143757_" x="80.5" y="-213.6" width="222" height="37"/>
		</defs>
		<clipPath id="SVGID_00000011000582162975461930000012599110036184647354_">
			<use xlink:href="#SVGID_00000005951962423741000730000015860621892092143757_"  style="overflow:visible;"/>
		</clipPath>
		<g style="clip-path:url(#SVGID_00000011000582162975461930000012599110036184647354_);">
			<path class="st1" d="M174.5-181.5h9.2v0.7h-26.2v-0.7h7.4v-17.4h-0.2l-14.9,18.1h-2.5l-14.8-18.1h-0.1v17.4h7.2v0.7h-17v-0.7h7.4
				v-17.9h-7.4v-0.7h19.2l10.4,13.2l10.8-13.2h20.7v0.7h-9.2L174.5-181.5L174.5-181.5z"/>
			<path class="st2" d="M227.5-180.8v-0.7h5.9l17.5-18.6h2.5l16.7,18.6h5.8v0.7h-23.2v-0.7h7.6l-4.5-5H240l-4.5,5h7.4v0.7H227.5z
				 M241-187.2h14.3l-6.9-7.9L241-187.2z"/>
			<path class="st3" d="M202.9-199.4v8.3c7.4,0,10.4-0.4,10.8-3.5h2.2v8.1h-2.2c-0.7-3.2-2.5-3.9-10.8-3.8v8.9h9.3
				c10,0,12.2-2.2,13.8-5.5h2.2l-0.7,6.3h-43.8v-0.8h7.6v-17.9h-7.7v-0.7h42.6l0.5,5.2h-2.2c-1.6-2.8-4.5-3.8-8.5-4.2
				c-2.2-0.2-4.5-0.3-6.7-0.2L202.9-199.4L202.9-199.4z"/>
			<path class="st3" d="M109.5-181.5c-1,0-1.9-0.1-2.8-0.3c-0.8-0.2-1.6-0.5-2.3-0.9l-0.3-0.2c-0.1,0-0.1-0.1-0.2-0.1
				c-0.2-0.1-0.4-0.3-0.6-0.6c-0.2-0.2-0.3-0.5-0.3-0.7c0-0.3,0-0.7,0.1-1s0.3-0.6,0.5-0.9c0.1-0.2,0.3-0.3,0.5-0.5s0.5-0.1,0.7-0.2
				c0.2-0.1,0.2-0.4,0.4-0.4s0.1,0.4-0.1,0.6v0.2c0.1,0,0.3,0,0.4,0c-0.1,0.2-0.3,0.2-0.3,0.3c-0.1,0.1,0.3,0.1,0.3,0.1
				c-0.2,0.2-0.6,0.1-0.8,0.2v0.2c0.6-0.1,1.4-0.6,2-0.2c-0.1,0-0.2,0.1-0.3,0.1c0.3,0.2,0.7,0,1,0.1c0.4,0.1,0.8,0.1,1.2,0.1
				c-0.1-0.1-0.3-0.1-0.3-0.2c0.5,0,1.1,0.1,1.6,0.3c-0.1-0.1-0.2-0.2-0.3-0.3c-0.1-0.1-0.3-0.1-0.4-0.1c-0.2,0-0.4-0.2-0.5-0.4
				c0-0.1,0-0.1,0.1-0.1c0.2,0,0.4,0,0.5,0.1c0.2,0.1,0.3,0.1,0.4,0s0.4,0.1,0.7,0c-0.3-0.3-0.7,0-1-0.4c0.3-0.1,0.5,0,0.8-0.2
				s0.5-0.1,0.7-0.1c0.3,0,0.7,0,1,0.1c0.1,0,0.2,0.1,0.3,0.1c0.3,0,0.5,0.3,0.8,0.1c0-0.1-0.1-0.1-0.2-0.2c-0.2,0-0.5,0-0.6-0.2
				c0-0.1,0-0.1,0.1-0.1c0.3,0,0.6,0.4,0.9,0.2c-0.5-0.4-1.1-0.1-1.6-0.4c-0.3-0.2-0.8-0.3-1-0.6c-0.1,0.1-0.2,0.1-0.3,0.1
				c-0.1,0-0.1-0.2-0.1-0.2c-0.3,0-0.7,0.1-0.7-0.2s0.4-0.2,0.6-0.2c0.7-0.1,1.3,0.3,2,0.4c0.1,0,0.1,0.1,0.1,0.2
				c0,0.1-0.1,0.1-0.2,0.1c0.3,0.1,0.7,0.1,1,0.1c0.5,0,1,0.1,1.4,0.2c0.3,0.1,0.5,0.2,0.8,0.1c-0.2-0.1-0.6,0.1-0.5-0.3
				c0-0.1,0.3,0,0.4-0.1l-0.1-0.1c0.1-0.2,0.2-0.1,0.3-0.1c-0.5-0.2-0.9-0.4-1.4-0.6c0.3-0.4,0.7-0.2,1.1-0.2c0,0,0-0.1-0.1-0.1
				c0.1-0.2,0.3,0.1,0.5,0c-0.1-0.1-0.2-0.1-0.3-0.2c-0.5-0.1-0.9-0.2-1.4-0.3c0.1-0.1,0.4,0.1,0.3-0.2s-0.6-0.3-0.9-0.4
				c0.3-0.2,0.6-0.2,0.9-0.1c0.3,0.1,0.7-0.1,1,0c-0.5-0.5-1.2,0.1-1.8-0.4c0.1-0.2,0.3-0.2,0.4-0.4c0.4,0.1,0.9-0.1,1.2,0
				c-0.5-0.2-1-0.4-1.5-0.5h-0.1c-0.2-0.1-0.4-0.1-0.6,0c-0.1,0-0.2,0.1-0.4,0.1c-0.4,0.1-0.9,0.1-1.4-0.1h0.1
				c0.2-0.1,0.5-0.2,0.8-0.2h0.4c0.1,0,0-0.2,0.1-0.2c0.3,0,0.6,0,0.8,0c0.4,0.2,0.8,0.3,1.2,0.4c0.2,0,0.3,0.1,0.5,0.1
				c0.1,0.1,0.1,0.1,0.2,0.2c0.4,0,0.7,0.1,1.1,0.3c0.1,0.1,0.1,0,0.1-0.1c-0.1-0.3-0.1-0.5,0.1-0.6h0.1c0-0.1-0.1-0.2-0.1-0.2
				c-0.1-0.1-0.2-0.1-0.2-0.1c0.4-0.1,1-0.2,1.3,0.3h0.2c0-0.2,0.1-0.2,0.2-0.3c0.3-0.1,0.5,0.3,0.8,0.3c0.6-0.1,1.2-0.1,1.8-0.2
				c-0.4-0.1-0.8-0.2-1.3-0.3c-0.1,0-0.2,0-0.2,0c-0.1,0-0.2-0.1-0.2-0.1c0.2-0.2,0.6-0.1,0.8-0.1c0.2,0.1,0.1-0.3,0.2-0.2
				c0.3,0.1,0.6,0.2,0.9,0.3s0.6,0.2,0.8,0.4c-0.3-0.6-1.1-0.5-1.1-1c-0.1-0.3,0.4,0.2,0.6-0.1c-1.2-0.3-2.5-0.2-3.7-0.4l-0.2-0.2
				c0.3-0.2,0.8-0.3,1.2-0.3c0.1,0.1,0.1,0.1,0.2,0.1c0.2,0,0.4,0,0.7,0.1v-0.1c-0.5-0.1-0.9-0.1-1.4-0.2c-0.3-0.1-0.7,0.1-1.1,0.2
				c-1.1,0.1-2.2-0.2-3.3-0.1c-0.5,0-1.1,0-1.6,0c-0.5,0.1-1,0.1-1.4,0s-0.8,0-1.2,0.1c-0.3,0-0.6,0-0.9-0.2c-0.1-0.1,0-0.1,0.1-0.1
				c0.8-0.1,1.6,0.1,2.4,0c-0.3-0.3-0.8-0.1-1.2-0.2c-0.1,0-0.1-0.2-0.2-0.2c0.3-0.1,0.6-0.1,0.8-0.1c0.1,0,0.1,0.1,0.1,0.1h1.2
				l-0.1-0.1c0.8-0.2,1.7-0.1,2.5-0.2c-0.6-0.2-1.3,0.1-1.9-0.1c0.1-0.1,0.2-0.1,0.3-0.1c0.1,0,0.2,0,0.3,0
				c-0.1-0.1-0.3-0.1-0.4-0.2c0.6-0.1,1.2-0.2,1.8-0.2c0-0.1-0.1-0.3,0-0.4c0,0.1,0.1,0.1,0.1,0.1s0.1,0.1,0.2,0.1
				c0.4-0.1,0.7-0.2,1,0.2c-0.2,0.1-0.4,0.2-0.6,0.2c0.2,0.3,0.5,0,0.8,0.1c0.1,0,0.1,0.1,0.1,0.1c0.4,0.1,0.8,0,1.2-0.1
				c0.1,0,0.2,0.3,0.3,0.1c-0.4-0.2-0.8-0.1-1.2-0.4c-0.4-0.2-0.7-0.5-1-0.8l0.1-0.1h0.1h0.1c0,0,0.1,0,0.1,0.1
				c0.2,0.1,0.3,0.2,0.5,0.2c0.1,0.1,0.1-0.2,0.2-0.2c0.3-0.1,0.6-0.1,0.8,0.1c0.4,0.1,0.8,0.2,1.2,0.2c0.1,0,0.1-0.1,0.1-0.1
				c0,0.1,0.1,0.1,0.1,0.1c-0.4-0.3-0.9,0-1.2-0.3c-0.1-0.1-0.3-0.3-0.5-0.4c0.1-0.1,0.3-0.1,0.4-0.1s0.3,0.1,0.3,0.2
				c0-0.1,0-0.2,0.1-0.2s0.3,0.2,0.4,0.1c-0.2-0.3-0.5-0.1-0.8-0.4c-0.5-0.2-1-0.1-1.5-0.3c0-0.1,0.1-0.1,0.1-0.1l0,0l0,0l0,0l0,0
				c-0.5,0.1-0.9-0.1-1.3-0.3c0.2-0.1,0.4-0.1,0.6-0.1s0.4,0,0.6,0.1s0.3,0.2,0.5,0.3c0.1,0,0.3,0.1,0.3-0.1c0-0.1-0.1-0.2-0.3-0.3
				c0.2-0.2,0.4,0.2,0.6,0c0-0.1-0.1-0.1-0.1-0.2c0.3-0.2,0.9,0.2,1.1,0s0.5,0.1,0.8,0c-0.3-0.2-0.6-0.3-0.9-0.4
				c-0.4-0.1-0.9-0.2-1.3-0.4c0.1-0.2,0.2-0.2,0.3-0.2c-0.2-0.2-0.4-0.2-0.7-0.3c0.3-0.1,0.7-0.1,1,0s0.5,0.2,0.8,0.3
				c0.1,0.1,0.3,0.2,0.3,0.3c-0.1-0.2-0.2-0.4-0.4-0.5c-0.2-0.1-0.3-0.2-0.5-0.3c-0.1-0.1,0-0.1,0.1-0.1s0.3,0.1,0.4,0.1l0,0l0,0
				l0,0l0,0c-0.1,0-0.1-0.1-0.1-0.1c0.3-0.3,0.5,0,0.8,0c0.1,0,0.1,0.1,0.2,0.2v-0.1c0,0,0-0.1,0.1-0.1c-0.7-0.3-1.4-0.6-2.2-0.7
				c-0.6-0.1-1.2-0.1-1.8-0.1c-1.2-0.1-2.3,0-3.5-0.1c0.7-0.4,1.4,0.1,2.1-0.2c-0.1-0.1-0.3-0.1-0.3-0.2c0.5-0.3,1,0.2,1.4-0.1
				c-0.6-0.2-1.2-0.1-1.8-0.4c0-0.1,0.1-0.1,0.2-0.1s0.1,0,0.2,0c-0.1-0.1-0.2-0.2,0-0.3s0.5,0.1,0.7,0c-0.7-0.1-1.4-0.1-1.8-0.7
				c0.9-0.2,1.8-0.4,2.7-0.4c0.4-0.1,0.9-0.1,1.4,0c0.1,0.1,0.3,0.2,0.3,0.3c0.1-0.2-0.1-0.2-0.1-0.3c-0.3-0.2-0.7-0.4-1.1-0.4
				c-0.3-0.1-0.5-0.1-0.8-0.1c-0.8-0.3-1.6,0-2.4-0.2c-0.1-0.1-0.3,0.1-0.5,0.1c0.1,0.1,0.3,0,0.3,0.1c-0.2,0.4-0.7,0.1-1.1,0.1
				c-0.7,0.1-1.4,0-2.1-0.2c0.5-0.3,1.1,0,1.7-0.1c-0.1-0.1,0.1-0.1,0-0.2c0.3-0.2,0.6,0.2,0.9,0.1c0.1-0.1-0.1-0.2-0.1-0.4
				c0.1-0.1,0.2,0,0.3-0.1v-0.3c0.5-0.4,1,0,1.5,0.2c-0.3-0.2-0.6-0.3-0.8-0.6c0,0,0,0,0-0.1v-0.1c0,0,0,0,0.1-0.1c0,0,0,0,0.1,0
				c0.5,0,1,0,1.5,0.2c-0.6-0.4-1.3-0.6-2-0.5c-1.1,0.2-2.1,0.2-3.2,0.1c-1.6-0.2-3-0.4-4.6-0.7c-0.1-0.1-0.2-0.2-0.2-0.2
				c0-0.3,0.3,0,0.4-0.2l-0.1-0.1l0.1-0.1h0.1h0.1c0,0,0.1,0,0.1,0.1l0,0c0,0,0,0,0,0.1l0,0c0,0,0,0-0.1,0h-0.1
				c-0.1,0.3,0.3,0.1,0.3,0.1c0.5,0.1,1,0,1.5-0.1c0.6-0.1,1.2,0.2,1.8,0.3c-0.1-0.1-0.3-0.1-0.2-0.2c0.2-0.3,0.6-0.1,0.9-0.1
				c0.6,0,1.1,0.1,1.6,0.4c0.1,0,0.3,0.1,0.4,0.1s-0.1-0.1-0.1-0.1c-0.7-0.4-1.5-0.3-2.2-0.8l0,0c0,0,0,0,0-0.1l0,0c0,0,0,0,0.1,0
				c0.1-0.1,0.2,0.2,0.3,0.1c-0.6-0.6-1.6,0-2.3-0.4c0.1-0.2,0-0.4,0.1-0.6c0.1-0.2,0.4-0.1,0.6-0.1c0,0,0.1,0,0.1,0.1h0.1
				c0.4,0.1,0.8,0.3,1.2,0.4c0.1,0.1-0.1-0.1-0.1-0.2v-0.1h0.1c0.1,0,0.3,0.1,0.3,0.2c0.2-0.1,0.5-0.1,0.7,0s0.3,0.4,0.6,0.4
				c-0.1-0.2-0.3-0.3-0.4-0.4l0,0c0,0,0,0,0-0.1l0,0c0,0,0,0,0.1,0h0.3c-0.2,0-0.3-0.1-0.5-0.1c-0.4-0.1-0.7-0.4-1-0.5
				c0.1-0.2,0.3-0.1,0.4-0.2c-0.4-0.3-1,0-1.4-0.3c0.2-0.1,0.4-0.2,0.5-0.2c0.2,0,0.4,0,0.6,0c-0.4-0.1-0.9-0.1-1.3-0.1
				c-0.1,0-0.2,0-0.3,0c-0.1,0-0.2-0.1-0.2-0.2c-0.1-0.2,0.3-0.1,0.1-0.2c-0.1-0.1-0.6,0.1-0.9-0.1l0.1-0.1c-0.3-0.3-0.7-0.2-1-0.1
				c0.2,0.2-0.1,0.2-0.1,0.2c-0.4,0-0.9,0.1-1.4,0.1s-1,0.2-1.4,0.3s-0.5-0.4-0.8-0.4c0.1-0.1,0.3-0.1,0.4-0.1c0.5,0,1.1,0,1.6,0
				c0.1,0,0.4,0.2,0.5-0.2c-0.1,0-0.3,0.1-0.3-0.1c0.5-0.2,0.9,0,1.4-0.2c-0.3,0-0.5-0.2-0.7-0.3c0.2-0.3,0.5-0.1,0.7,0.1
				c0.2,0.1,0.2-0.1,0.3-0.1c0.1,0.2,0.3,0.3,0.5,0.3c0.2,0.1,0.4,0.1,0.6,0c-0.4-0.1-0.8-0.3-1-0.6c0.5-0.1,1,0,1.5,0.2
				c-0.3-0.3-0.6-0.4-1-0.5c-1.5-0.2-3-0.2-4.4-0.1c-0.1,0-0.5,0.3-0.6,0.1c-0.1-0.4,0.5-0.2,0.6-0.4c-0.2-0.2-0.6,0.1-0.7-0.1
				c0.7-0.2,1.4-0.1,2.1,0.1c-0.1-0.3-0.4-0.1-0.5-0.3v-0.1h0.1c0.3,0,0.7,0.2,1,0.1c0.4-0.1,0.9,0.1,1.2,0.1
				c-0.2-0.2-0.5-0.4-0.8-0.4c-0.6-0.2-1.2-0.1-1.8-0.4l0.1-0.1c0,0-0.1,0-0.1-0.1c0.4-0.5,1,0.1,1.5,0c-0.1,0-0.1,0-0.1,0l-0.1-0.1
				c0.2-0.2,0.4,0,0.6-0.1c-1.2-0.3-2.4-0.3-3.6-0.5c-0.1,0-0.1-0.1-0.1-0.2c0.4-0.4,1,0,1.6-0.2c-0.7-0.1-1.4-0.1-2-0.1
				c-0.6,0.1-1.2,0.1-1.8,0.1c0,0.1,0.3,0.2,0.1,0.2c-0.3,0-0.7,0.1-1,0.1c0.3,0.1,0.6-0.1,0.8,0.1c-0.6,0.4-1.4,0.1-1.9,0.6
				c-0.1,0.1-0.4,0-0.6,0.1c-0.5,0.1-0.9,0.3-1.3,0.5c0.5,0.1,1,0,1.5-0.2c0.1,0,0.1,0.2,0.1,0.2c0.5-0.3,0.9-0.2,1.4-0.2
				c0.1-0.1,0.2,0,0.2-0.1c0.1,0.1,0.3,0.3,0.1,0.4c-0.5,0.1-0.8,0.4-1.3,0.3c-0.2,0-0.4,0-0.6,0.1c-0.1,0.1-0.3,0.2-0.4,0.2
				c0.1,0.1-0.3,0.1-0.1,0.1c0.2,0,0.2-0.1,0.4-0.1c0.2,0,0.1,0.3,0.2,0.2s0.3-0.2,0.3-0.1c0.6,0.1,1.2-0.3,1.8,0
				c0,0-0.1,0.3-0.3,0.3c-0.6,0-1.3,0.1-1.9,0.2c-0.6,0.1-1.1,0.1-1.7,0c-0.2,0-0.3-0.1-0.5,0c-0.2,0-0.3,0.1-0.4,0.2
				c0.3,0.1,0.5-0.1,0.7,0.1c-0.3,0.3-0.6,0.3-1,0.5c-0.1,0.2-0.3,0.2-0.5,0.4c0.8-0.4,1.6-0.5,2.4-0.8c0.1-0.1,0.2,0.3,0,0.3
				c-0.2,0.1-0.2,0.2-0.3,0.2c0.2,0,0.5-0.1,0.7,0s0.4,0,0.4-0.2c0.1-0.2-0.2-0.1-0.3-0.2c0.4-0.3,1.3-0.4,1.2,0.3
				c0,0.1-0.2,0.1-0.3,0.1c-0.1,0,0-0.2-0.1-0.3S95.1-210,95-210c0,0.2,0.4,0.1,0.3,0.3c-0.1,0.1-0.1,0.2-0.2,0.2
				c-0.8-0.2-1.4,0.2-2.1,0.1c-0.3,0-0.7-0.1-0.9,0.1c0.1,0,0.3,0,0.4,0.1s-0.3,0.1-0.3,0.3h0.1c0,0,0.1,0,0.1,0.1
				c0.1-0.1,0.1-0.1,0.2-0.1s0.2,0,0.2,0c1-0.2,2.1-0.3,3.1-0.3c0.2,0,0.6-0.1,0.6,0.1c0,0.2-0.6,0.1-1,0.2
				c-0.1,0.1-0.3,0.3-0.3,0.3c-0.4,0.1-0.8-0.2-1.3-0.1c0,0.1,0,0.1-0.1,0.1h-0.9l0.1,0.1c-0.1,0.2-0.3,0.1-0.4,0.1
				c-0.5-0.3-1.1-0.4-1.6-0.3c0.1,0,0.3-0.1,0.4,0s0.2,0.1,0.3,0.1c0.1,0,0,0.4-0.1,0.4c-0.5-0.1-0.9-0.2-1.4-0.1
				c0.1,0.2,0.4-0.1,0.4,0.2c0.1,0.2-0.3,0-0.4,0.2c-0.4-0.2-0.8,0.2-1.2,0.1c0.4,0.2,0.8-0.1,1.2,0.1c0.2,0,0.3,0,0.4-0.1
				c0.6-0.1,1.2-0.1,1.8,0.1c0,0,0,0.2-0.1,0.2h-0.5c-0.1,0-0.1,0.1-0.1,0.1c0.4,0.2,0.8-0.2,1.2,0.2c-0.1,0.1-0.1,0.2-0.3,0.1
				c-0.3-0.1-0.5,0-0.8-0.1c0,0.1-0.2,0.1-0.1,0.1c0.2,0.2,0.4,0.1,0.6,0.1c0,0.1,0.3,0.1,0.1,0.2l0,0l0,0c0.3,0.1,0.5,0.1,0.8,0.2
				l0,0l0,0l0,0l0,0h-0.3c0.1,0.2,0.5-0.1,0.5,0.2v0.1h-0.1c-0.7,0.1-1.5,0-2.1-0.3c-0.1-0.1,0-0.1,0.1-0.1c0.4-0.1,0.6,0.2,1,0.2
				c-0.4-0.3-1-0.1-1.4-0.5c0.1-0.1,0.1-0.1,0.2-0.1s0.2,0,0.2,0c-0.4-0.2-0.7,0.1-1.1,0c-0.2-0.1-0.3-0.2-0.5-0.1v0.1
				c-0.5,0.2-1,0.2-1.6,0.4c0.5,0.1,0.8-0.2,1.3,0c-0.1,0.1-0.3,0.1-0.3,0.3c0.3,0,0.6,0,0.9,0.1c-0.8,0.3-1.7,0.1-2.5,0.6
				c0.5-0.2,1-0.2,1.5-0.1c0.1,0,0.1,0.2,0.1,0.2c0.6-0.1,1.2-0.1,1.8,0.1l0.2,0.2c-0.3,0.1-0.7-0.1-1-0.1c-0.9-0.1-1.8,0.1-2.5,0.6
				c0.5-0.2,1.1-0.3,1.7-0.3c0.1,0,0.2,0.2,0.3,0.1c0.5,0.1,0.9,0.1,1.4,0.1c0.6-0.2,1.1-0.1,1.7,0.1c-0.3,0.1-0.6,0-0.8,0.1
				c0,0,0,0.1,0.1,0.1c-0.8,0.4-1.7,0-2.6,0.2c-0.4,0.1-0.7,0.2-1.1,0.2c0.6,0.1,1.2-0.3,1.8,0c0.4,0.2,0.9,0.2,1.3,0.1
				c0.1,0,0.1,0.1,0.1,0.2c0.3,0,0.3,0.1,0.3,0.4c-0.6,0.1-1.2-0.2-1.9-0.2c-0.1,0-0.1,0.1-0.1,0.1c0.3,0.1,0.5-0.1,0.7,0.1
				c-0.1,0.1-0.2,0.4-0.3,0.4c-0.5,0.1-0.8-0.1-1.3,0.1c0.3,0,0.7-0.1,0.8,0.2c0.1,0.1-0.2,0-0.3,0.1c-0.4-0.2-0.8,0.1-1.2,0.1
				c0.2,0.1,0.4-0.1,0.6,0s0.1,0.1,0.1,0.1c0,0.1-0.1,0.1-0.1,0.1c-0.2,0-0.4,0.1-0.6,0.1c-0.5,0-1.1,0-1.6,0c0,0.1-0.2,0.1-0.1,0.1
				c0.3,0.1,0.6-0.2,0.9,0c-0.4,0.4-0.9,0-1.3,0.2c-0.2,0.2-0.4,0.2-0.6,0.4c0.5-0.1,1-0.4,1.5-0.2c0,0.1-0.2,0.1-0.2,0.2
				c0.1,0.1,0.4-0.1,0.5,0.1c-0.3,0.3-0.8,0.3-1.1,0.5c0.2,0.1,0.5-0.1,0.4,0c-0.2,0.4-0.7,0.5-1,0.8l0.7-0.2
				c0.4-0.1,0.9-0.2,1.3-0.2c0.2,0.1,0.1,0.3,0,0.4c-0.6,0-1.1,0.1-1.7,0.2c-0.3,0.1-0.6,0.3-0.8,0.6c0.4-0.2,0.8-0.6,1.2-0.4
				c0.1,0,0.4,0,0.5,0.1s-0.3,0.4-0.3,0.4c0.4,0.1,0.8-0.1,1.2,0.1c-0.3,0.3-0.9,0.2-1.1,0.5c0,0,0,0.1-0.1,0.1
				c0.1,0,0.2-0.1,0.4-0.1c0.1,0,0.1,0,0.2,0c0.9-0.2,1.8-0.3,2.7-0.2c-0.3,0.1-0.5,0.2-0.8,0.2c-1.2,0.3-2.5,0.1-3.7,0.3
				c0.2,0,0.5,0.1,0.6,0.3c-0.4,0.2-0.8-0.1-1.2,0.1c-0.3,0.2-0.6,0.1-0.8,0.4c0.4-0.1,0.8-0.5,1-0.1c0.1,0.2-0.5,0-0.4,0.4
				c0,0.1,0.4-0.1,0.5,0.1c0,0.1-0.2,0-0.2,0.1c0.5,0.1,1-0.1,1.5,0.1c-0.4,0.2-0.8,0.1-1.2,0.1v0.1c0.1,0.1,0.3,0,0.2,0.1
				s-0.5,0.1-0.7,0.3c0.2,0,0.5,0,0.7,0.1c0.1,0.1,0.5-0.1,0.6,0.1c0.1,0.4-0.5,0.3-0.7,0.3c-0.7,0-1.4,0-2.1,0.1v0.1
				c0.1-0.1,0.3-0.1,0.4-0.1s0.3,0,0.4,0.1c-0.6,0.4-1.3,0.2-2,0.5c0.4,0,0.8,0,1.2,0.2c-0.4,0.4-0.9,0.1-1.4,0.3
				c0.9,0.1,1.9-0.1,2.8,0.1c0,0.1-0.1,0.1-0.2,0.1c-0.3,0.1-0.5-0.1-0.8,0.1c-0.2,0.1-0.4,0.1-0.6,0.2l-0.1,0.1c0,0-0.1,0-0.2,0
				c0.4,0.1,0.7-0.3,1.1-0.1c0.2,0.1,0.5,0,0.5,0.2c-0.1,0.2-0.3,0.1-0.5,0.3c0.2,0,0.5-0.1,0.6,0.1c-0.5,0.3-1.1,0.3-1.6,0.2
				c-0.6-0.1-1.2-0.1-1.8,0c0.2,0.1,0.4,0,0.5,0.2c-0.3,0.2-0.6,0.4-0.9,0.5c0.2,0,0.3-0.1,0.4-0.1s0.2,0.1,0.3,0.1s0-0.2,0.1-0.2
				c0.3,0,0.5-0.1,0.7,0.1c-0.1,0.1-0.4-0.1-0.5,0.2c0.5,0.1,1.1-0.3,1.5,0.1c-0.4,0.2-0.8,0.4-1.2,0.5c-0.7,0.1-1.3,0.4-1.9,0.8
				c0.2,0,0.5-0.1,0.7-0.1c0.9-0.2,1.8-0.2,2.7-0.2c0.2,0,0.6-0.1,0.5,0.2c-0.1,0.4-0.6,0.6-1.1,0.6c0,0,0,0.1,0.1,0.1
				c0.3-0.1,0.5,0,0.7-0.1s0.4-0.2,0.6-0.3s0.4-0.1,0.6-0.1c0,0,0,0.1,0.1,0.1v0.1c-0.4,0.4-0.9,0.4-1.4,0.6
				c0.4,0.1,0.8-0.2,1.2-0.2s0.7-0.2,1.2-0.1c-0.1-0.1-0.3-0.1-0.3-0.2c0.1-0.2,0.6-0.8,0.8-0.5c0.2,0.3-0.3,0.3-0.2,0.3
				c0.5,0.5,0.9-0.4,1.5-0.2v-0.1c-0.2-0.1-0.4,0.1-0.6-0.1c0.5-0.3,1.1-0.3,1.5-0.6c0,0,0,0-0.1,0s-0.1-0.1-0.1-0.1
				c0-0.3,0.3-0.2,0.4-0.2c0.8-0.2,1.7-0.6,2.5-0.2c-0.4,0.2-0.9,0.2-1.3,0.2c0.2,0.3,0.7-0.2,0.7,0.2v0.1c0,0.2-0.2,0.2-0.4,0.2
				c0.1,0.3,0.5,0,0.4,0.2c0,0.1-0.1,0.3-0.2,0.3c-0.3,0.1-0.7-0.1-1.1,0s-0.9-0.1-1.4,0.2l0,0c0,0,0,0,0,0.1l0,0c0,0,0,0,0.1,0
				c-0.3,0.2-0.7,0-1,0.3h-0.2c0.4,0.1,0.9-0.1,1.3,0l0,0l0.1,0.1c-0.2,0.1-0.3,0.3-0.5,0.4c-0.4,0.1-0.8-0.1-1.2,0.2
				c0.3,0.1,0.6-0.1,1,0.1c-0.2,0.1-0.5,0.1-0.6,0.1c0,0.1,0,0.1,0.1,0.1c0.5,0,1,0,1.4,0.1c-0.4,0.2-0.7,0.4-1.1,0.6l-0.1-0.1
				c-0.2,0-0.5-0.1-0.7-0.2c-0.3,0-0.6,0-0.9,0.1c0.1,0,0.2,0,0.2,0.1s-0.3,0.1-0.4,0.1c-0.5-0.3-1-0.2-1.4-0.4
				c-0.2-0.1-0.5-0.2-0.7-0.2s-0.5,0-0.7,0.1c0,0-0.3,0-0.2,0.1c0.4,0.1,1-0.1,1.4,0.1c-0.5,0.5-1.3,0.4-1.8,0.9
				c0.8-0.3,1.7-0.4,2.5-0.4c0.3,0,0.7-0.2,1,0.1c-0.7,0.1-1.3,0.5-2,0.7c-0.1,0.1-0.1,0.2-0.2,0.3c-0.6,0.2-1.2,0.5-1.8,0.9
				c0.3,0.1,0.7-0.2,1-0.2s1-0.6,1.4-0.2c-0.2,0.3-0.7,0.3-0.9,0.7c0,0.1-0.1,0.1-0.1,0.2c0-0.1,0.1-0.1,0.2-0.2l0.2-0.1
				c0.3,0,0.6-0.2,0.8-0.3c0.1-0.1,0.3,0.1,0.5,0s0.4-0.2,0.6-0.3c0.1,0,0.1,0.1,0.1,0.1c0,0.1-0.3,0.2-0.3,0.3
				c0.2,0.1,0.4-0.1,0.6-0.1c0.3,0,0.6-0.4,0.9-0.5c0.6-0.2,1.2-0.3,1.8-0.4c0.2,0,0.4-0.1,0.6-0.2c0.7-0.1,1.4-0.2,2.1-0.4
				c0.3-0.1,0.7-0.2,1,0c-0.8,0.3-1.6,0.5-2.5,0.5c-0.2,0.1-0.3,0.4-0.6,0.4c-0.8,0.1-1.6,0.2-2.4,0.5c0.4,0.2,0.8-0.2,1.2,0.1
				c0,0.1,0,0.2-0.1,0.2c-0.3,0.1-0.5,0.1-0.8,0.2c-0.2,0-0.3,0.1-0.5,0.1c0.2-0.1,0.3-0.1,0.5-0.1s0.4,0,0.5,0.1
				c-0.1,0.1-0.2,0.2-0.3,0.3c0,0.1,0.1,0.1,0.2,0.1s0.1-0.2,0.3-0.3c0.2-0.1,0.5-0.2,0.8-0.1c0.1,0,0.1,0.1,0.1,0.3
				c0.2-0.1,0.5-0.3,0.7-0.4c0.2-0.1,0.3-0.2,0.5-0.2l2.1-0.3c-0.4-0.1-0.7,0.1-1.1-0.1c0.7-0.3,1.4-0.5,2.1-0.6
				c0.1,0,0.3-0.1,0.3,0.1c-0.1,0.3-0.5,0-0.7,0.4c0.3,0.2,0.5,0,0.8,0.1c0.1,0,0.1-0.1,0.1-0.1c0.7-0.1,1.6-0.3,2.1,0.1
				c-0.6,0.2-1.2-0.1-1.8,0c-0.6,0.1-0.9,0.3-1.4,0.5h-0.2c-0.1,0-0.2,0.1-0.3,0.1h-0.5c-0.6,0-1.2,0-1.8,0.2c0,0,0,0.1,0.1,0.1
				c-0.6,0.3-1.3,0.5-2,0.6c-0.5,0-0.9,0.4-1.4,0.6c0.3,0.2,0.6-0.1,1-0.3h0.1c0,0,0.1,0,0.1,0.1s0,0.2,0,0.3s-0.1,0.2-0.1,0.2
				c-0.1,0.1,0.1,0.2,0.1,0.3c0.1-0.3,0.4-0.6,0.7-0.3c0.1,0.1,0,0.2,0,0.3c0.1-0.2,0.3-0.3,0.4-0.4c0.2-0.1,0.4-0.2,0.6-0.2
				c0.1,0,0.1,0.2,0,0.3c0.3,0,0.6-0.2,0.8-0.4c0.2-0.1,0.4,0.1,0.6,0c0.5-0.2,0.9-0.4,1.4-0.5c0.1,0,0.1,0.1,0.1,0.1
				c0.2-0.1,0.4-0.1,0.6-0.1c0.1-0.1,0.2,0,0.2-0.1c0,0.1,0.3,0.1,0.1,0.2c0.7,0.1,1.3-0.1,2-0.1c-0.3-0.2-0.6,0.1-0.8-0.2
				c0-0.1,0-0.2,0.1-0.2c0.7,0,1.3,0,2,0c-0.3-0.3-0.8,0-1.2-0.1c-0.1,0-0.1-0.1-0.1-0.1c0.1-0.1,0.2-0.1,0.3-0.2
				c0.8-0.2,1.6-0.3,2.4-0.3c0.1,0,0.1,0.1,0.1,0.2c0,0.1,0,0.1,0,0.2c-0.2,0.6-0.4,1.2-0.7,1.9c-0.3,0.6-0.8,1.2-1.4,1.6
				c-0.8,0.5-1.6,0.9-2.5,1H83c0,0.2,0,0.7,0,0.7h39.6v-0.7h-13.1V-181.5z M112-188.3c0.1,0.1,0.3,0.1,0.5,0.2
				c-0.2,0.1-0.5,0.3-0.7,0.1c-0.1-0.1,0.3,0,0.2-0.1c-0.1-0.1-0.3,0.1-0.3-0.1S111.9-188.4,112-188.3z M114.7-193.6
				c0.5,0,1,0.1,1.4,0.3l0,0l0,0l0,0l0,0c-0.2,0-0.5,0-0.7-0.1C115.1-193.5,114.9-193.5,114.7-193.6
				C114.6-193.6,114.6-193.6,114.7-193.6z M113.3-199.2c0.1,0,0.1,0.2,0.2,0.1c0.3-0.2,0.5,0,0.8,0.1c0,0.1,0.3,0.2,0.1,0.2
				c-0.3,0.1-0.7,0.1-1,0C113.2-198.8,113-199.1,113.3-199.2z M84.5-194.7c-0.1-0.3,0.7-0.3,1.1-0.3c0.1,0,0.1,0.1,0.1,0.1
				C85.4-194.6,84.7-194.3,84.5-194.7z M87.8-192.7c-0.1,0.4-0.6,0.1-1-0.1c0.1-0.1,0.3-0.2,0.3-0.1
				C87.4-192.9,87.9-192.9,87.8-192.7z M88.3-193c-0.1,0-0.4,0.1-0.4-0.1s0.3-0.2,0.4-0.1V-193z M88.3-194.6c0,0.1,0,0.2-0.1,0.2
				c-0.5-0.1-1,0.2-1.5,0c0.1-0.1,0.2-0.2,0.3-0.1v-0.1c-0.3,0-0.5,0-0.8,0c0,0.1-0.1,0.1-0.1,0.2c-0.1,0.1-0.1-0.1-0.2-0.2
				c0,0.1,0,0.2-0.1,0.2c-0.1-0.2-0.1,0.1-0.2,0s-0.1-0.1-0.1-0.2c0.4-0.3,0.9-0.4,1.4-0.3c0.1,0,0.1,0.1,0.1,0.1
				c0.5,0,0.9-0.2,1.3,0l-0.1,0.1h-0.1C88.2-194.6,88.3-194.6,88.3-194.6z M103.8-188.4c-0.1,0-0.3,0.1-0.3-0.1c0,0.1,0,0.1-0.1,0.1
				h-0.6c-0.1,0-0.1-0.1-0.1-0.2c0.1-0.1,0.2-0.1,0.3-0.1c0.1,0,0.2,0,0.2,0.1c0.1,0,0.1,0.1,0.2,0.2c0.1-0.1,0.3-0.2,0.4-0.1
				C103.9-188.5,103.9-188.4,103.8-188.4z M102.7-197.3v-0.1c0.2,0,0.5-0.2,0.7,0c-0.1,0.1-0.2,0.2-0.3,0.2
				C102.9-197.2,102.8-197.2,102.7-197.3z M103-192.2c-0.1,0.1-0.1,0.1-0.2,0s0-0.4,0.1-0.4S103.1-192.3,103-192.2z M103-190.8
				c0.1-0.3,0.4-0.3,0.7-0.3c0.1,0,0.1,0.1,0.1,0.1s-0.2,0.2-0.3,0.3c-0.1,0.1-0.4,0.6-0.6,0.6C102.5-190.2,102.8-190.5,103-190.8z
				 M103.9-189.8c0,0.1-0.1,0-0.1,0.1c-0.2,0.2-0.3,0.6-0.7,0.4c0.2-0.3,0.4-0.5,0.7-0.7C103.9-190,103.9-190,103.9-189.8
				L103.9-189.8z M103.6-193.4c-0.1-0.1-0.3-0.3-0.1-0.4c0.2-0.1,0.3,0,0.5,0c0.4-0.2,0.9-0.2,1.4-0.2c0.1,0,0.1,0.1,0.1,0.1
				c0.1,0.1,0,0.1-0.1,0.1c-0.4,0.1-0.8-0.1-1.1,0.1C104.1-193.5,103.8-193.4,103.6-193.4z M105.4-190.5c-0.3,0-0.6,0-1,0
				c0.1-0.3,0.5-0.1,0.6-0.4c0.2,0.2,0.4-0.1,0.6,0.2S105.5-190.5,105.4-190.5z M106.1-188.7c0-0.1,0-0.2,0.1-0.2h0.1
				c0.5,0,0.9,0.1,1.4,0.3c-0.1,0.1-0.1,0.2-0.2,0.2c-0.4-0.1-0.7-0.1-1-0.2C106.4-188.5,106.2-188.5,106.1-188.7z M107.6-187h-0.4
				c0,0.1,0,0.1-0.1,0.1c-0.3-0.1-0.5,0-0.7-0.1c0.2-0.4,0.6-0.2,1-0.2c0.1,0,0.2-0.1,0.3,0.1C107.8-187,107.7-187,107.6-187z
				 M111.5-190.5c-0.4,0.2-1,0.4-1.2-0.1c-0.1-0.2,0.2-0.3,0.3-0.2C110.8-190.7,111.2-190.9,111.5-190.5z M111-192.3
				c0.1,0.1-0.2,0.1-0.4,0.1c-0.2,0-0.6,0.1-0.8-0.1C110.2-192.5,110.8-192.8,111-192.3z M109.9-193.7c0.2,0.1,0.4,0.2,0.6,0.2h0.1
				v0.1c0,0,0,0,0,0.1c0,0,0,0-0.1,0h-0.1h-0.1c-0.3-0.1-0.6,0.1-0.8-0.2C109.7-193.6,109.8-193.8,109.9-193.7z M108.5-190.1
				c0.2,0,0.4,0,0.6,0c0.3,0.1,0.6,0,0.8,0.2l0,0l0,0l0,0l0,0c-0.3-0.1-0.7,0.1-1-0.1c-0.1,0-0.1,0-0.2,0S108.6-190.1,108.5-190.1
				L108.5-190.1C108.4-190,108.4-190,108.5-190.1C108.4-190.1,108.4-190.1,108.5-190.1C108.4-190.1,108.4-190.1,108.5-190.1z
				 M108.5-187c-0.2,0.1-0.5,0.1-0.7,0.1c0.1-0.1,0.3-0.3,0.4-0.2C108.3-187.1,108.4-187.2,108.5-187z M108-188.8
				c-0.3-0.1-0.5,0.1-0.7,0s-0.2,0-0.2-0.1s0-0.1,0.1-0.1c0.1-0.1,0.1,0.2,0.2,0.1c0.1-0.1,0.2-0.1,0.4-0.1c0.1,0,0.2,0.1,0.3,0.1
				C108.1-188.9,108.1-188.8,108-188.8z M108-192c0,0.1-0.2,0-0.3,0.1c-0.1,0.1-0.1,0-0.1-0.1s0.1-0.1,0.3-0.1S108-192,108-192z
				 M107.7-193.1c0.1,0,0.1,0.1,0.1,0.1c0.1,0.1,0,0.1-0.1,0.1s-0.2-0.2-0.4-0.1c-0.3,0.1-0.6-0.1-0.9,0.1c0.3,0.1,0.6-0.1,0.8,0.1
				c-0.6,0.3-1.2,0.5-1.9,0.4h-0.1c0,0,0,0.1,0.1,0.1c-0.2,0.1-0.3,0.3-0.6,0.3c-0.1,0-0.1,0.1-0.1,0.1c-0.1,0-0.1-0.1-0.1-0.1
				c0.1-0.3,0.3-0.3,0.6-0.3c-0.3,0-0.6,0-0.9-0.2c0.1-0.2,0.3-0.3,0.6-0.3c0.2,0,0.4,0,0.6,0.1l-0.1,0.1c0.3-0.1,0.6,0.1,0.8-0.2
				c0.1-0.1-0.3-0.1-0.3-0.2s0.2-0.1,0.3-0.1c0.3,0,0.6,0.1,0.9,0.1C107.2-193,107.4-193,107.7-193.1L107.7-193.1z M107.5-194.1
				c0-0.1-0.1-0.1-0.1-0.1c-0.1,0,0,0.1-0.1,0.1c-0.2,0-0.4-0.1-0.5-0.1c-0.5-0.1-1.1,0.1-1.5-0.2c0.1-0.6,0.6-0.1,1-0.3
				c-0.8-0.4-1.7,0.4-2.3-0.1c-0.1-0.1,0.3-0.1,0.4-0.1c-0.1-0.1-0.2-0.1-0.4-0.1s-0.1-0.1-0.1-0.1c0.3-0.3,0.6-0.6,1-0.8
				c0.2-0.1,0.3-0.1,0.5,0c0.2,0,0.3,0.1,0.4,0.2c-0.3,0.2-0.7-0.1-0.8,0.3c0,0.1,0,0.2,0.1,0.2s0.4-0.1,0.6-0.1
				c0.4,0.1,0.6,0.4,1,0.2c0.1-0.1,0.3-0.3,0.4-0.2c0,0,0.1,0,0.1,0.1v0.1v0.1l-0.1,0.1h-0.3c0.1,0.5,0.7,0.1,0.9,0.5
				C107.7-194.2,107.5-194.2,107.5-194.1L107.5-194.1z M105.1-199.6c0.1-0.1,0.2-0.1,0.3-0.1c0.1,0,0.5-0.1,0.7,0.1
				C105.8-199.3,105-199.1,105.1-199.6z M108.1-201.4c0.3-0.1,0.9-0.2,1,0.1c0.1,0.1-0.3,0.1-0.4,0.1c-0.2,0.1-0.5,0.2-0.8,0.2
				s-0.5-0.1-0.8-0.2C107.5-201.3,107.8-201.3,108.1-201.4L108.1-201.4z M109.2-195.9c0-0.1,0.1-0.1,0.1-0.1c0,0.1,0.1,0.1,0.1,0.1
				c0.4,0,0.8,0.1,1.1,0.3c-0.3,0.1-0.2,0.2-0.3,0.4c-0.3-0.2-0.8-0.1-1.1-0.4c0-0.1,0.1-0.1,0.2-0.1
				C109.3-195.8,109.2-195.8,109.2-195.9z M109.1-199c0-0.1,0.1-0.1,0.2-0.1s0.5,0,0.3,0.2c-0.1,0-0.2,0-0.3,0
				C109.2-198.9,109.2-198.9,109.1-199z M108.3-200.6c0.1-0.1,0.3-0.1,0.5-0.1s0.3,0,0.5,0.1c0.1,0.1,0.3-0.1,0.4,0.1
				c-0.2,0.1-0.4,0.2-0.7,0.2C108.8-200.5,108.5-200.5,108.3-200.6L108.3-200.6z M108.1-199.3c0.1,0.1,0.5,0.1,0.4,0.2
				c-0.2,0.4-0.8,0-1.2-0.1c0.1-0.1,0.3-0.1,0.4-0.1C107.8-199.4,108-199.4,108.1-199.3z M107.3-200.7c0-0.1,0.1-0.1,0.2-0.1v0.1
				C107.5-200.6,107.3-200.6,107.3-200.7z M107.3-198.1c-0.2,0.1-0.3,0.2-0.5,0.2s-0.4,0-0.6-0.1c0.2-0.1,0.4-0.1,0.5-0.3
				C106.9-198.1,107.1-198.3,107.3-198.1z M107.6-197.4c-0.1-0.1,0-0.1,0.1-0.1s0.1,0,0.1,0c0.3,0.2,0.6-0.1,0.9,0.2
				c0,0.1,0,0.1-0.1,0.1C108.3-197.3,107.9-197.1,107.6-197.4z M107.8-195.4c-0.1-0.1,0.1-0.4,0.4-0.4c0.1,0,0.1,0.1,0.1,0.1
				l-0.1,0.1c0.3,0.1,0.6,0,0.8,0.3c0.1,0.1,0,0.1-0.1,0.1C108.6-195.2,108-195,107.8-195.4z M108.9-194.8c-0.1,0-0.4,0.1-0.5-0.1
				c0.6-0.1,1.2-0.2,1.8-0.1c0.2,0,0.5,0,0.6,0.1C110.2-194.5,109.6-194.8,108.9-194.8L108.9-194.8z M111.3-196.3
				c0,0.1,0,0.1-0.1,0.1c-0.7,0.1-1.4,0-2-0.2c0.2-0.2,0.5,0.1,0.7-0.2c0.1-0.1,0.4,0.1,0.6,0c0.1-0.1,0.3-0.1,0.5,0
				C111.1-196.5,111.2-196.4,111.3-196.3z M110.5-201.6c-0.1,0-0.1,0-0.1-0.1c0.1-0.1,0.2-0.1,0.3-0.1s0.2,0,0.3,0.1
				c-0.1,0.2-0.2,0.1-0.3,0.1c0.5,0.3,1.1-0.2,1.6,0.1c-0.4,0.1-0.9,0.2-1.4,0.3c-0.3,0.1-0.4-0.2-0.7-0.3
				C110.2-201.7,110.3-201.4,110.5-201.6z M110-201c0,0.1,0,0.1-0.1,0.1c-0.4-0.2-0.8,0.2-1.2-0.1c0.3-0.2,0.6-0.3,0.9-0.2
				C109.8-201.2,109.9-201.2,110-201L110-201z M107.5-202c0.7,0,1.5,0.1,2.2,0.1c-0.2,0.4-0.5,0-0.8,0.1s-0.3,0.2-0.4,0.2
				c-0.3-0.2-0.7-0.2-1-0.3C107.4-201.9,107.4-202,107.5-202z M106.5-203.1c0.3,0,0.5,0.1,0.7,0.3c-0.1,0.1-0.1,0.1-0.1,0.1
				c-0.3-0.1-0.7,0.1-1-0.2C106.2-203,106.3-203.2,106.5-203.1z M104.5-205.1c0.6,0,1.3-0.2,1.9,0.2l0,0c0,0,0,0,0,0.1l0,0
				c0,0,0,0-0.1,0c-0.3,0-0.7-0.3-1-0.1s-0.9,0-1.4,0c-0.1,0-0.1-0.1-0.1-0.2C104-205.2,104.3-205.1,104.5-205.1z M104.5-202.6
				c0.1,0,0.3,0,0.3,0.1c-0.1,0.4-0.7,0.2-0.9,0.1C104-202.5,104.3-202.6,104.5-202.6L104.5-202.6z M104.2-198.6
				c0.1,0.1,0.2,0.1,0.3,0.2c0.1,0.1,0,0.1-0.1,0.1s-0.5,0.2-0.5,0C103.8-198.4,104-198.6,104.2-198.6z M103.8-197.1L103.8-197.1
				l-0.2,0.1C103.5-197.1,103.6-197.1,103.8-197.1C103.8-197.1,103.8-197.1,103.8-197.1z M104-207.9c0.1,0,0.2,0,0.2,0.1
				s0.3,0,0.4,0.1c-0.2,0.1-0.5,0.2-0.7,0.1C104-207.7,103.8-207.8,104-207.9z M103.4-207.7c0.1,0.1,0.1,0.1,0,0.2
				c-0.1,0.1-0.3,0.1-0.3-0.1S103.3-207.8,103.4-207.7z M103.8-207.3c0.1,0,0.1-0.1,0.2-0.1c0.1-0.1,0.1,0.1,0.1,0.1
				c-0.1,0.1-0.3,0.2-0.5,0.2s-0.4,0-0.5-0.1C103.2-207.4,103.5-207.3,103.8-207.3L103.8-207.3z M103.2-202.8c0.1,0,0.2,0,0.3,0
				c0.1,0,0.2,0.1,0.2,0.1c-0.2,0.1-0.5,0.4-0.7,0.3c-0.1,0-0.1-0.1-0.1-0.1l0.1-0.1c-0.1,0-0.3,0.1-0.3-0.1S103-202.8,103.2-202.8z
				 M103.4-200.5c0.1,0.1,0,0.1-0.1,0.1h-0.5c-0.1,0-0.1-0.1-0.1-0.1c0.1-0.1,0.2-0.2,0.3-0.2S103.3-200.5,103.4-200.5z
				 M102.5-208.2c0.1,0,0.1,0.1,0.1,0.2c-0.2,0.2-0.5,0.4-0.8,0.2c0.1-0.2,0.3-0.1,0.4-0.3C102.3-208.3,102.4-208.1,102.5-208.2z
				 M101.6-208.2L101.6-208.2c0.2,0,0.4-0.1,0.4,0s-0.3,0.4-0.5,0.2C101.6-208.1,101.6-208.2,101.6-208.2z M99.5-207.8
				c0.5-0.1,1.1-0.1,1.6,0.1c-0.1,0.2-0.3,0.2-0.4,0.2s-0.4,0.1-0.5,0.1c-0.1-0.1-0.3-0.2-0.5-0.2c0,0.2-0.1,0.2-0.1,0.2
				c-0.4,0.1-0.9,0-1.3-0.1C98.6-207.7,99-207.7,99.5-207.8z M99.6-202c0,0.1,0,0.1-0.1,0.1c-0.2-0.1-0.6-0.1-0.5-0.4
				c0-0.1,0.2-0.2,0.4-0.2c0.2,0,0.3,0.1,0.3,0.2c0.1,0.1-0.2,0.1-0.3,0.1L99.6-202z M98.9-205.2c0-0.1,0.2-0.1,0.2,0
				C99.1-205,98.9-205.1,98.9-205.2z M99.4-201.5L99.4-201.5C99.4-201.4,99.4-201.4,99.4-201.5c0,0.1,0,0.1,0,0.1l0,0
				c-0.2,0-0.4,0-0.5-0.1l-0.1,0.1c-0.1,0-0.1-0.1-0.2-0.1c0-0.1-0.1-0.1-0.1-0.2c0-0.1,0.2-0.1,0.3-0.1
				C99-201.7,99.2-201.6,99.4-201.5z M98.6-200.6c0-0.1,0-0.1,0.1-0.1s0.1,0.1,0.1,0.1l0.1,0.1C98.7-200.5,98.7-200.5,98.6-200.6z
				 M98.5-193.4c-0.1,0-0.1-0.1-0.1-0.2s0.1-0.1,0.1-0.1s0,0,0.1,0.1L98.5-193.4C98.6-193.5,98.6-193.5,98.5-193.4
				C98.5-193.5,98.5-193.4,98.5-193.4z M98.2-204c-0.1,0.1-0.1,0.2-0.2,0.2c-0.3,0-0.5,0.2-0.7,0.3s-0.1-0.1-0.2-0.1
				c-0.4,0.1-0.9,0-1.2-0.2c0.3-0.3,0.7,0,1.1-0.1c0.2-0.1,0.4-0.1,0.6-0.1S98-204.1,98.2-204z M94.6-194.2
				c-0.2,0.1-0.4,0.1-0.5,0.1c-0.2,0-0.4-0.1-0.5-0.2c0.1-0.1,0.3,0,0.4,0.1c0.3,0,0.4-0.2,0.6-0.2c0.4-0.1,0.7-0.3,1.1-0.3
				c0.2,0,0.3,0.2,0.4,0.3C95.7-194.3,95.2-194.2,94.6-194.2L94.6-194.2z M95-193.5c-0.2,0.2-0.4,0.2-0.6,0.2s-0.4-0.1-0.6-0.2
				c0.1-0.1,0.3,0,0.4,0.1C94.6-193.3,94.8-193.7,95-193.5z M92.3-194.3c-0.1,0-0.4,0.1-0.4-0.1c0.1-0.4,0.5-0.2,0.8-0.3
				c0.4-0.1,0.8-0.1,1.2-0.1c0.1,0,0.1,0.1,0.1,0.1C93.5-194.4,92.9-194.5,92.3-194.3z M95.9-197c-0.1,0-0.2-0.1-0.2-0.1
				c0-0.1,0.1-0.3,0.3-0.2c0.1,0.2,0.3,0.4,0.4,0.6c0,0.1,0,0.1-0.1,0.1s-0.1,0-0.1,0l-0.1-0.1v-0.1C96.1-197,96-197,95.9-197z
				 M93.9-203.9c0.3-0.1,0.5-0.1,0.8-0.1s0.6,0.1,0.8,0.2c-0.1,0.3-0.3,0.2-0.6,0.2c-0.3,0-0.6,0-0.9-0.1c0.1-0.1,0.3-0.1,0.5-0.1
				C94.3-203.9,94.1-203.7,93.9-203.9L93.9-203.9z M95.8-202.6c0.1,0.1,0,0.3,0.1,0.4c0.1,0.1,0.4,0,0.5,0.1s-0.1,0.1-0.2,0.2
				c-0.3-0.2-0.7,0.2-0.8,0c-0.1-0.2,0.1-0.1,0.3-0.2c-0.6-0.1-1.2-0.2-1.8-0.2C94.5-202.5,95.1-202.6,95.8-202.6z M96.7-200.7
				c0,0.1-0.1,0.1-0.1,0.1c-0.2-0.1-0.5-0.2-0.6-0.4c0-0.1,0-0.1,0.1-0.1s0.3,0.1,0.4,0.1C96.6-201,96.7-200.9,96.7-200.7z
				 M94.1-200c0.1-0.3,0.5-0.1,0.9,0c-0.1,0.1-0.3,0.2-0.3,0.4C94.6-199.5,94.1-199.9,94.1-200z M95.2-198.3
				c-0.2,0.1-0.3,0.3-0.5,0.3h-0.2c-0.1,0-0.1-0.1-0.1-0.1C94.6-198.3,95-198.5,95.2-198.3z M95-199.7c0.1-0.1,0.3-0.1,0.5-0.1
				s0.3,0,0.5,0.1c-0.1,0.1-0.3,0.2-0.5,0.2S95.2-199.6,95-199.7z M96.3-195.3c-0.2,0.2-0.4,0.3-0.7,0.3c-0.4,0-0.7,0.3-1.1,0.1
				c0.2-0.4,0.6-0.1,0.9-0.4C95.7-195.5,96-195.4,96.3-195.3L96.3-195.3z M96.3-193.2c0,0.1,0.3,0.1,0.1,0.2
				c-0.2,0.1-0.3-0.1-0.3,0.1v0.1c-0.3,0.1-0.7,0.2-0.8-0.1C95.5-193.2,95.9-193.1,96.3-193.2z M97-191.3c-0.2,0.3-0.6-0.1-0.8,0.2
				c-0.1-0.2-0.4,0.1-0.5-0.1C96.1-191.5,96.7-191.4,97-191.3z M96.9-197.3c-0.1,0-0.2,0.1-0.3-0.1c0-0.2,0-0.1,0-0.1h0.1
				C96.8-197.4,97-197.3,96.9-197.3z M97.4-197c-0.2,0.1-0.3,0.1-0.5,0l0.1-0.1h0.1h0.1C97.4-197,97.4-197,97.4-197z M96.9-193.3
				c0.2,0.1,0.6,0.1,0.5,0.4c0,0.3-0.5,0.2-0.8,0C96.7-193.1,96.7-193.3,96.9-193.3z M97.6-192.3c0.1,0.1,0.1,0.3,0,0.3
				c-0.3,0.1-0.7,0-0.7-0.2S97.4-192.5,97.6-192.3z M96.7-191c0.3,0,0.6,0,0.9,0c0.1,0.1,0.1,0.1,0.1,0.2c0,0.1,0,0.2-0.1,0.3
				c-0.4-0.5-1-0.2-1.6-0.2c-0.1,0-0.1,0-0.1,0l-0.1-0.1C96-191,96.3-191,96.7-191L96.7-191z M97.7-190.4c0,0.1,0.1,0.2-0.1,0.3
				s-0.1-0.1-0.3-0.1c-0.1,0-0.1-0.1-0.1-0.1C97.4-190.4,97.6-190.4,97.7-190.4z M96.2-198.3c0.3-0.1,0.6-0.5,0.8-0.3
				c0.1,0.1,0.3-0.1,0.3,0c0.1,0.2,0.3,0.1,0.5,0.3l0,0c0,0,0,0,0,0.1l0,0c0,0,0,0-0.1,0C97.2-198,96.7-198.1,96.2-198.3z
				 M97.2-200.4c-0.1,0-0.1-0.3-0.2-0.3c0.1-0.1,0.2-0.1,0.3-0.1c0.1,0,0.2,0,0.3,0.1c0.1,0.1,0.3,0.1,0.4,0.2
				C97.9-200.3,97.5-200.6,97.2-200.4z M97.3-206.8c0.1,0,0.1,0.1,0.1,0.1c-0.1,0.1-0.3,0.1-0.3,0S97.2-206.8,97.3-206.8z
				 M95.9-207.4c0.2,0,0.4,0,0.5,0c0.2,0,0.4,0,0.6,0.1c-0.2,0.1-0.3,0.2-0.4,0.3s-0.6-0.1-0.8-0.2
				C95.9-207.3,95.9-207.4,95.9-207.4z M95.4-207.2h0.3c0.1,0,0.1,0.1,0.1,0.1c-0.1,0.1-0.4,0.2-0.4,0
				C95.4-207.1,95.4-207.2,95.4-207.2z M95.2-205.8c0.3,0,0.5,0,0.8,0.1c-0.2,0.1-0.4,0-0.6,0.1c0.3,0,0.7-0.2,0.9,0.2
				c-0.5,0.2-1,0.2-1.5,0.1c-0.2,0-0.3-0.1-0.5,0.1c0-0.1-0.1-0.2-0.1-0.2c-0.1-0.1-0.1-0.1-0.2-0.1
				C94.3-205.9,94.8-205.7,95.2-205.8L95.2-205.8z M94.6-204.3c0.5-0.1,1.1-0.1,1.6,0c0-0.1,0-0.1,0.1-0.1c0.3,0,0.7-0.2,0.8,0.1
				c0.1,0.2-0.2,0.1-0.3,0.1c-1,0.1-2.1,0.2-3.1,0.1C93.9-204.4,94.3-204.2,94.6-204.3L94.6-204.3z M94.5-198.7
				c-0.1,0.1-0.1,0.1-0.2,0.1s-0.2,0-0.2,0c-0.2,0-0.4-0.1-0.5-0.1c0.2-0.1,0.3-0.1,0.5-0.1C94.1-198.8,94.3-198.8,94.5-198.7z
				 M94.3-196.7c-0.5,0.2-1,0.2-1.4,0.1c0.1-0.3,0.3-0.2,0.5-0.2C93.7-196.8,94.1-197,94.3-196.7L94.3-196.7z M92.6-201.9v0.1
				c-0.2,0.1-0.4,0.2-0.5,0.2c-0.2,0-0.4,0-0.6-0.1C91.8-201.9,92.2-201.8,92.6-201.9z M92.5-199.9L92.5-199.9
				c0.3,0.4,0.6-0.1,0.9,0.1c0,0.1-0.2,0-0.2,0.1c-0.3,0.6-1,0.4-1.4,0.2c-0.2,0-0.4-0.1-0.7-0.2c0.2-0.1,0.4-0.2,0.7-0.3
				C92-200,92.3-200,92.5-199.9z M90.4-199.3c0.2,0,0.3,0,0.5,0c0.3,0,0.6-0.1,0.9-0.1c0.1,0.1,0.1,0.2,0.3,0.3
				c-0.1,0.2-0.4,0-0.6,0.1v0.2c-0.5,0.3-0.9-0.1-1.2-0.4C90.3-199.2,90.3-199.3,90.4-199.3L90.4-199.3z M90.3-197.4
				c0.1-0.1,0.2,0.1,0.3,0.2c0.1,0.1,0,0.2-0.1,0.2c-0.2,0-0.4,0.1-0.6-0.1C90-197.1,90.2-197.3,90.3-197.4z M89.9-195.6l3.7-0.2
				c-0.3-0.2-0.7,0-1-0.1c0,0-0.3-0.1-0.1-0.2c0.9-0.2,1.9-0.2,2.9-0.3c0.2,0,0.4,0,0.5,0c0.2,0.1,0.3,0.2,0.4,0.4
				c0.1,0.3-0.3,0.1-0.3,0.1c-0.7,0.1-1.4-0.2-2,0.2c0.4-0.1,0.8-0.1,1.2,0.1c0,0,0.3,0.1,0.1,0.1c-0.7,0.2-1.5,0.3-2.2,0.3
				c-0.4,0-0.7,0-1-0.1c-0.9-0.1-1.8-0.1-2.6-0.1c0.1-0.1,0.1-0.1,0.2-0.2C89.7-195.6,89.8-195.6,89.9-195.6z M91.5-194.9
				c-0.1,0.1-0.2,0.1-0.3,0.1c-0.1,0.6-0.7,0.3-1,0.6c-0.2,0.1-0.2-0.2-0.3-0.3c0.2-0.2,0.5-0.1,0.7-0.2c0.1,0,0.1-0.2,0.1-0.2
				c-0.5-0.1-0.9,0.2-1.4,0c-0.1-0.1-0.3-0.2-0.1-0.2c1-0.3,2-0.3,2.9,0v0.1C91.8-194.9,91.6-194.9,91.5-194.9z M88.8-189.5
				c-0.1,0-0.1-0.2-0.2-0.4v-0.1l0.1-0.1h0.1h0.1c0.3,0.2,0.5,0.1,0.7,0.1c0.3,0,0.6-0.2,0.8-0.3c0.1,0,0.3,0.1,0.4,0.1
				s0.3-0.1,0.4,0C90.6-189.5,89.7-189.6,88.8-189.5z M91.2-189.1c-0.1,0-0.1,0.1-0.1,0.2c-0.1,0.1-0.3,0.2-0.4,0.2
				c-0.2,0-0.3-0.1-0.4-0.2c-0.3-0.1-0.4,0.2-0.7-0.1c0.8-0.3,1.6-0.4,2.4-0.6c0.2-0.1,0.4-0.1,0.7-0.1s0.4,0,0.7,0.1
				C92.6-189.2,91.9-189,91.2-189.1L91.2-189.1z M93.3-190.7c-0.5,0.1-1,0.2-1.5,0.1c-0.8,0-1.5,0.1-2.2,0.4c-0.1,0-0.1-0.1-0.1-0.1
				c0.2-0.3,0.5-0.2,0.8-0.3c0.1-0.1-0.3-0.1-0.3-0.1c0.3-0.3,0.7-0.1,1-0.2l0-0.1c0-0.1,0.2-0.1,0.3-0.2c0.3-0.1,0.7,0.1,1-0.1
				c0.1-0.2,0.3-0.4,0.5-0.4h0.4l0.1,0.2c-0.1,0.2-0.3,0.2-0.5,0.4c0.1,0,0.1,0.1,0.1,0.1c0.1,0,0.1,0,0.2,0s0.1-0.1,0.2-0.1
				c0.2-0.1,0.3,0.1,0.4,0.3C93.6-190.7,93.4-190.8,93.3-190.7L93.3-190.7z M93.8-191.8c-0.1-0.2-0.3-0.1-0.3-0.1
				c-0.6-0.1-1.2,0-1.7,0.2c-0.2,0.1-0.6,0.2-0.6,0c-0.1-0.2,0.3-0.1,0.5-0.4c0.1-0.1,0.4,0.1,0.5,0c0.6-0.3,1.3-0.3,2-0.1
				c0.7,0,1.4,0.2,2,0.5c-0.4,0.1-0.7,0.2-1.1,0.2c-0.2,0-0.3-0.3-0.5-0.4C94.4-191.9,94-191.9,93.8-191.8z M97.7-187.1
				c-0.1,0.3-0.4,0.1-0.6,0.1c-0.2,0.1-0.6,0.3-0.6,0c0-0.1,0-0.2,0.1-0.2c0.2,0,0.3-0.1,0.5-0.1s0.4-0.1,0.6,0V-187.1z M97.8-188.9
				c-0.1,0.1-0.3,0.2-0.4,0.1c0-0.2,0.1-0.3,0.1-0.4c-0.7,0-1.4,0.1-2.1,0.1c-0.4,0.1-0.9,0.3-1.1,0c-0.1-0.1-0.3-0.1-0.1-0.2
				c0.7-0.2,1.5,0.3,1.9-0.4c0.5,0.1,1-0.1,1.5,0.1C97.9-189.5,97.9-189.1,97.8-188.9z M97.9-199.5c0.1,0,0.1,0,0.2,0
				s0.1,0.1,0.2,0.1c0.1,0.2-0.2,0-0.3,0.1C97.8-199.2,97.7-199.4,97.9-199.5z M98.1-194.6L98.1-194.6c0.4,0.3,0.5,0.8,0.1,0.8
				C98.1-193.8,97.9-194.3,98.1-194.6z M98.3-193.1c0-0.1,0.1-0.1,0.3,0C98.5-193.1,98.3-193,98.3-193.1z M98.7-192.2
				c-0.2-0.2-0.2-0.4-0.3-0.6c0-0.1,0.1-0.1,0.2-0.1s0.1,0.1,0.1,0.1C98.7-192.7,98.8-192.4,98.7-192.2z M98.9-198.5
				c-0.1,0.1-0.4-0.3-0.1-0.4c0,0,0.1,0,0.1,0.1C98.9-198.8,99-198.5,98.9-198.5z M99.1-190.4c-0.1,0-0.1-0.1-0.1-0.2
				c0-0.1,0.1-0.1,0.1-0.1s0.1,0,0.1,0.1L99.1-190.4C99.2-190.6,99.2-190.5,99.1-190.4C99.2-190.5,99.1-190.5,99.1-190.4z
				 M99.6-199.9c-0.1,0.1-0.2-0.1-0.3-0.1c-0.1-0.1,0.1-0.1,0.2-0.1s0.1,0.1,0.1,0.1C99.7-200,99.6-199.9,99.6-199.9z M99.6-200.8
				c0-0.1-0.2-0.1-0.1-0.2c0.1-0.2,0.3-0.1,0.3,0.1v0.1c0,0,0,0-0.1,0.1C99.7-200.8,99.7-200.8,99.6-200.8L99.6-200.8z M100.3-192.1
				c-0.1-0.5-0.2-1.1-0.2-1.7c0-0.1,0.2-0.1,0.3-0.1c0.1,0,0.1,0,0.2,0.1l0.1,0.1C100.6-193.1,100.7-192.5,100.3-192.1L100.3-192.1z
				 M100.1-195.6c0.1-0.1,0.1-0.2,0.2-0.2l0,0l0,0l0,0l0,0C100.2-195.7,100.2-195.7,100.1-195.6
				C100.1-195.4,100.1-195.5,100.1-195.6L100.1-195.6z M99.9-196.1C99.8-196.2,99.8-196.2,99.9-196.1
				C99.8-196.2,99.8-196.2,99.9-196.1c0-0.1,0-0.1,0-0.1s0,0,0.1,0s0.3-0.1,0.4,0.1l0.1-0.1l0.2,0.2c-0.1,0.1-0.3,0.1-0.4,0.1
				S100-196,99.9-196.1z M100.1-198c0-0.1,0.3-0.3,0.4-0.1c0.1,0.1,0,0.2-0.1,0.2h0.4c0.1,0,0.4,0.1,0.3,0.1
				c-0.2,0.1-0.6-0.1-0.8,0.1c0-0.1-0.2,0-0.2-0.1S100.1-197.9,100.1-198C100.1-198,100.1-197.9,100.1-198z M100.6-202.2
				c0,0.1-0.3,0.2-0.5,0.1c0.1-0.1,0.1-0.2,0.3-0.2S100.6-202.4,100.6-202.2z M100.3-203.9L100.3-203.9L100.3-203.9L100.3-203.9z
				 M100.6-198.8c0.1-0.1,0.2-0.1,0.3-0.1c0,0.1,0.2,0.1,0.1,0.2c0,0,0.1,0,0.1,0.1v0.1c0,0.1-0.2,0.2-0.3,0.2c-0.1,0-0.2-0.3,0-0.4
				h0.1C100.8-198.7,100.7-198.7,100.6-198.8L100.6-198.8z M100.5-199.7L100.5-199.7c-0.1-0.1-0.4-0.1-0.2-0.2
				c-0.1-0.1-0.1-0.4,0-0.4s0.3-0.1,0.4,0.1c0.1,0.1,0.3,0.1,0.3,0.2c-0.1,0.2-0.5-0.1-0.7,0.1c0.1,0,0.3-0.1,0.5,0.1
				c0.1,0.1,0,0.1-0.1,0.1L100.5-199.7L100.5-199.7z M100.6-198.4c0,0.1,0,0.1-0.1,0.1s-0.3,0.1-0.4-0.1c-0.1-0.1,0.2-0.1,0.3-0.1
				C100.6-198.5,100.5-198.4,100.6-198.4z M101.2-199.8c-0.1,0.1-0.3,0.1-0.4,0l0.1-0.1h0.1C101-199.9,101.1-199.9,101.2-199.8
				C101.1-199.8,101.2-199.8,101.2-199.8z M101.1-199.2c-0.1-0.1-0.3-0.2-0.3-0.4c0.1-0.1,0.1,0,0.1,0.1c0-0.1,0.1-0.1,0.1-0.1
				c0.1,0,0.1,0.1,0.1,0.2C101.1-199.3,101.1-199.3,101.1-199.2C101.2-199.3,101.1-199.2,101.1-199.2z M100.3-200.8
				c-0.1,0-0.1-0.1-0.1-0.2c0.2-0.3,0.6-0.1,0.8-0.1c0.1,0,0.1,0.1,0.1,0.1C101-200.7,100.6-200.8,100.3-200.8L100.3-200.8z
				 M100.8-203.6c-0.1-0.1-0.3-0.4-0.1-0.5c0.1,0,0.2,0,0.3,0.1c0.2,0.1,0.3,0,0.4,0.2s-0.1,0.2-0.1,0.2c-0.1,0-0.2,0.1-0.3,0.1
				S100.8-203.6,100.8-203.6z M100.8-201.3c0,0.1,0.3,0.1,0.1,0.2c-0.2,0-0.4-0.1-0.5-0.1C100.5-201.4,100.7-201.3,100.8-201.3z
				 M100.1-198.9L100.1-198.9c0.1,0.1,0.4,0.2,0.2,0.2c-0.1,0-0.2,0.1-0.3-0.1C100-198.9,100.1-198.9,100.1-198.9z M100.7-196.9
				C100.7-196.9,100.7-197,100.7-196.9c0.1-0.1,0.1-0.1,0.1-0.1h0.1c0,0,0.1,0,0.1,0.1c0.1,0.1,0,0.4-0.1,0.4
				C100.8-196.5,100.7-196.8,100.7-196.9z M101.1-188.7c-0.1-0.5-0.3-1.2,0.1-1.6c0.1-0.1,0.2,0,0.2,0.1
				C101.4-189.7,101.3-189.2,101.1-188.7z M101.4-191.6c-0.1-0.1-0.1-0.1-0.1-0.1c0.1-0.4-0.1-0.8,0.3-1c0.1,0.2,0.1,0.4,0.1,0.6
				C101.5-192,101.5-191.8,101.4-191.6z M101.7-193.2c-0.1,0.1-0.1,0.1-0.2,0.2c-0.1,0.1-0.1,0-0.1-0.1c0-0.2,0-0.5,0.2-0.5v-0.1
				l0.1-0.1v0.1C101.8-193.6,101.8-193.4,101.7-193.2L101.7-193.2z M99.7-206.4c0.1,0,0.1,0.1,0.1,0.1h0.5c0-0.1,0-0.1,0.1-0.1
				s0.1,0.1,0.1,0.1c0.2-0.1,0.5,0,0.6,0.1c-0.4,0.3-0.8,0-1.2,0c-0.4,0.1-0.7,0-1-0.2c0.4-0.3,1-0.4,1.5-0.3c0.6-0.1,1.1-0.1,1.7,0
				C101.3-206.2,100.5-206.7,99.7-206.4L99.7-206.4z M102.7-186.7c-0.5-0.2,0-0.9-0.1-1.4c0.1,0,0.1-0.3,0.2-0.1
				c0,0.1,0,0.1-0.1,0.2v0.1c0,0,0,0,0,0.1c0.1,0.1,0.2,0.1,0.2,0.1c0,0.2,0.1,0.3,0,0.4C103-187.1,102.8-186.6,102.7-186.7z"/>
			<path class="st5" d="M298.9-207.1c1.5,1.5,2.6,3.4,3,5.5s0.3,4.3-0.5,6.3s-2.1,3.7-3.8,5c-1.7,1.3-3.8,2-5.9,2.1
				c-2.8,0.2-5.6-0.6-7.8-2.4c1.6,1.5,3.7,2.5,5.9,2.9c2.2,0.3,4.5,0,6.5-0.9c2-1,3.7-2.5,4.9-4.4c1.1-1.9,1.7-4.2,1.5-6.4
				c-0.1-1.5-0.5-2.9-1.2-4.2C301-205,300.1-206.1,298.9-207.1"/>
			<path class="st5" d="M278.9-194.8c-0.5,0.2-0.7,0.7-0.4,1.4c0.3,0.7,0.7,0.9,1.2,0.7c0.1,0,0.2-0.1,0.2-0.2
				c0.1-0.1,0.1-0.2,0.1-0.3c0-0.2,0-0.5,0-0.7v-0.2v-0.2c-0.1-0.5,0-0.7,0.2-0.8s0.6,0.1,0.8,0.5c0.2,0.6,0.1,0.9-0.3,1.1l0.1,0.4
				c0.6-0.2,0.8-0.8,0.5-1.6s-0.8-1-1.2-0.8c-0.1,0-0.2,0.1-0.3,0.2c-0.1,0.1-0.1,0.2-0.1,0.3c-0.1,0.3,0,0.6,0.1,0.9v0.2
				c0.1,0.5,0.1,0.7-0.2,0.8c-0.2,0.1-0.5-0.1-0.7-0.5s-0.1-0.8,0.3-1L278.9-194.8z"/>
			<path class="st5" d="M278.7-198.4l1.7-1.4v0.5l-1.4,1.2l0.5,0.5h1v0.4l-2.9,0.1v-0.4h1.1h0.2h0.1l-0.1-0.1l-0.1-0.1l-1.3-1.4
				v-0.5L278.7-198.4z"/>
			<path class="st5" d="M278.8-204.6l-0.2,0.4l0.8,1c0.1,0.1,0.1,0.2,0.2,0.3h-0.2h-0.2l-1.2,0.3l-0.2,0.5l2-0.6l1.1,0.4l0.1-0.4
				l-1.1-0.4L278.8-204.6z"/>
			<path class="st5" d="M281.5-208.5l-1.7,2l0.4,0.3l0.6-0.7l1.8,1.5l0.4-0.5l-1.8-1.5l0.6-0.7L281.5-208.5z"/>
			<path class="st5" d="M285.8-210.9l-1.5,0.8l0.3,0.5l1.3-0.8l0.3,0.4l-1.3,0.8l0.4,0.6l1.5-0.9l0.3,0.5l-2.1,1.2l-1.5-2.5l2.1-1.2
				L285.8-210.9z"/>
			<path class="st5" d="M289.8-211.2c-0.1-0.2-0.2-0.4-0.3-0.6c0,0.2-0.1,0.4-0.1,0.7l-0.1,0.5l0.8-0.1L289.8-211.2z M291.5-209.7
				h-0.8l-0.4-0.6l-1.2,0.2l-0.2,0.7l-0.7,0.2l0.8-3.1l0.7-0.1L291.5-209.7z"/>
			<path class="st5" d="M296.1-208.8l-0.6-0.2l0.2-0.9l0.1-0.4c0-0.2,0.1-0.3,0.1-0.4s0.1-0.2,0.1-0.4l0.1-0.2
				c-0.2,0.3-0.2,0.4-0.4,0.6l-0.2,0.3l-0.8,1.1l-0.5-0.1l-0.2-1.4c0-0.1,0-0.2,0-0.3c0-0.2,0-0.3,0-0.4v-0.3l-0.1,0.3
				c-0.1,0.4-0.1,0.5-0.2,1l-0.3,0.9l-0.6-0.1l0.7-2.8l1,0.2l0.1,1.3c0,0.3,0,0.6,0,0.9c0.1-0.2,0.1-0.3,0.3-0.5s0.2-0.2,0.2-0.3
				l0.8-1.1l0.9,0.3L296.1-208.8z"/>
			<path class="st5" d="M296-199.5c0.6-0.5,1.2-0.7,2-0.8c0.3,0,0.6,0.1,0.6,0.4c0,0.3-0.3,0.6-0.9,0.8c-0.7,0.2-1.5,0.2-2.2,0.1
				C295.6-199.2,295.8-199.4,296-199.5 M284.3-198.5c-0.5,0-0.8-0.2-0.8-0.6c0,0,0-1.3,2.9-1.4c0.4,0,0.8,0,1.2,0
				c-0.1,0.1-0.2,0.2-0.3,0.3l-0.2,0.1C286.5-199.5,285.3-198.5,284.3-198.5 M290.6-203.3c-0.3,0.3-1,1-1.7,1.6l-0.8,0.7
				c-0.6-0.1-1.2-0.2-1.9-0.2c-1.4,0-2.7,0.4-3.3,1c-0.1,0.1-0.2,0.2-0.2,0.3c-0.1,0.1-0.1,0.3-0.1,0.4c0,0.7,0.8,1,1,1.1
				c0.6,0.2,1.2,0.3,1.8,0.2c0.6-0.1,1.2-0.3,1.6-0.7c0.7-0.5,1.3-1.1,1.9-1.7c0.4,0.1,0.9,0.2,1.5,0.4l0.5,0.1
				c-0.7,0.6-1.3,1.3-1.9,1.9l0,0c-0.9,0.8-1.5,1.3-2.4,1.5c-0.4,0.1-0.9,0.1-1.2-0.1l0,0c0.2,0.2,0.5,0.4,0.9,0.5
				c0.3,0.1,0.7,0.1,1,0.1c1-0.2,2-0.7,2.7-1.5l1.3-1.2l0.9-0.9l1.8,0.5l0,0l-1.1,1.1l-1,1c-0.7,0.7-1.4,1.3-2.1,1.9
				c-0.7,0.6-1.6,0.9-2.5,1.1c-0.5,0-0.9,0-1.4-0.3l0,0l0,0c0.3,0.3,0.6,0.5,1,0.7s0.8,0.2,1.2,0.2c1.2,0,2.2-0.6,3.8-2.1
				c0.7-0.7,1.5-1.4,2.1-2.1l1.2-1.2c0.7,0.2,1.5,0.2,2.3,0.2c1.1,0,2.1-0.6,2.1-1.2c0-0.2-0.1-0.4-0.2-0.5s-0.2-0.3-0.4-0.3
				c-0.4-0.3-0.9-0.4-1.4-0.4c-1,0.1-1.9,0.4-2.6,1.1l-0.6,0.5l-0.2-0.1l-1.7-0.5c0.5-0.5,0.9-0.8,1.3-1.2c0.7-0.6,1.6-1,2.5-1.2
				c0.5-0.1,1,0,1.5,0.2l0,0c-0.6-0.5-1.3-0.8-2.1-0.8c-1,0-1.9,0.4-2.6,1.1c-0.6,0.5-1.2,1-1.7,1.6l-0.8-0.2l-0.2-0.1l-0.9-0.3
				l0.5-0.5c0.6-0.6,1.2-1.1,1.6-1.5c1.6-1.3,2.6-1.5,3.3-1.5c0.6,0,1.3,0.1,1.8,0.5l0,0c-0.3-0.4-0.8-0.6-1.2-0.8s-0.9-0.3-1.4-0.3
				C292.6-204.7,291.4-204.2,290.6-203.3z"/>
			<path class="st5" d="M297.8-211c0.1,0,0.2,0.1,0.2,0s0-0.1-0.1-0.1l-0.1-0.1V-211L297.8-211z M297.8-210.6L297.8-210.6l-0.1-0.3
				h-0.1l-0.1,0.2h-0.1l0.3-0.5l0.2,0.1c0.1,0,0.2,0.1,0.1,0.2c-0.1,0.1-0.1,0.1-0.2,0L297.8-210.6z M298.1-210.7
				c0-0.1,0.1-0.2,0-0.3c0-0.1-0.1-0.2-0.2-0.2c-0.1-0.1-0.2-0.1-0.3,0c-0.1,0-0.2,0.1-0.2,0.2v0.1c0,0.1,0,0.1,0,0.2s0,0.1,0.1,0.1
				l0.1,0.1c0.1,0,0.2,0.1,0.3,0C298-210.6,298-210.6,298.1-210.7z M297.3-211.1c0-0.1,0.1-0.2,0.3-0.3c0.1,0,0.2,0,0.4,0
				c0.1,0,0.2,0.1,0.3,0.3c0,0.1,0,0.2,0,0.4c0,0.1-0.1,0.2-0.3,0.2s-0.2,0-0.4,0c-0.1,0-0.1-0.1-0.2-0.1c0,0-0.1-0.1-0.1-0.2
				C297.3-210.9,297.3-210.9,297.3-211.1C297.3-211,297.3-211.1,297.3-211.1L297.3-211.1z"/>
		</g>
	</g>
</g>
</svg>
