<?xml version="1.0" encoding="UTF-8"?>
<svg version="1.1" viewBox="0 0 1248 832" width="1248" height="832" xmlns="http://www.w3.org/2000/svg">
  <path transform="translate(819,147)" d="m0 0h9l-4 3-19 10-19 12-14 10-14 11-12 11-10 10-11 14-11 15-11 19-11 22-12 33-5 18-8 39-6 39-6 25-8 24-11 25-10 18-15 22-11 13-7 8-11 12-16 15-17 14-17 12-17 11-27 14-20 9-24 9-31 9-39 8-4-1 21-12 16-10 16-12 13-10 16-15 8-7 13-15 11-14 11-16 12-21 9-20 9-24 5-17 6-31 4-35 3-38 5-30 5-19 5-15 11-24 12-19 13-16 11-12 10-9 16-13 21-13 23-12 27-11 28-9 25-6 25-4 24-3z" fill="#6b7280"/>
  <path transform="translate(813,135)" d="m0 0h32l23 1 3 1v2l-20 10-22 12-14 8-20 13-11 8-20 16-17 17-9 11-10 14-8 13-9 16-8 19-7 19-7 23-6 28-5 30-5 27-6 23-10 28-12 25-9 15-8 12-14 18-12 13-7 8-9 9-8 7-11 10-11 8-15 11-18 11-16 9-17 9-27 11-34 11-36 8-29 4-21 2h-23l4-4 21-10 23-13 20-12 16-11 17-13 10-9 8-7 19-19 11-14 13-18 10-17 8-16 9-23 7-23 6-30 3-25 3-40 3-26 5-24 6-20 9-22 9-17 12-18 12-14 9-10 8-8 11-9 13-10 25-15 16-8 18-8 28-10 22-6 23-5 29-4zm6 12-22 2-37 5-22 5-24 7-17 6-22 9-20 10-19 12-11 8-13 11-15 14-9 11-9 12-12 20-11 25-7 24-5 27-3 30-3 36-5 32-5 21-8 24-11 26-12 22-8 12-12 16-12 14-9 10-12 11-10 9-16 12-20 14-25 14-3 3 9-1 34-7 31-9 19-7 23-10 24-12 21-13 16-12 14-11 24-22 14-15 11-14 8-11 12-19 9-17 10-25 7-21 6-27 7-45 7-32 5-16 11-31 14-28 12-19 12-15 9-11 15-15 14-11 15-11 16-10 17-10 12-6v-1z" fill="#6b7280"/>
</svg>
